<svg width="360" height="490" viewBox="0 0 360 490" fill="none" xmlns="http://www.w3.org/2000/svg">
<path fill-rule="evenodd" clip-rule="evenodd" d="M91.0515 371.75C97.1981 266.074 44.5161 243.552 15.1149 181.263C-11.7988 124.244 -4.88492 50.6129 46.2553 0C228.052 0 499.934 0 681.731 0V570.707C646.331 688.561 39.0799 688.561 30.2209 546.988C24.6927 458.643 87.1677 438.523 91.0515 371.75Z" fill="url(#paint0_linear)"/>
<path fill-rule="evenodd" clip-rule="evenodd" d="M-44.0838 344.466C-13.3482 328.964 16.4953 351.446 35.6286 352.184C46.906 352.619 55.8451 345.513 57.3098 337C58.8645 327.963 61.8095 324.018 65.0018 324.173C67.8243 324.311 70.8403 327.653 73.2593 333.517C81.2952 352.992 74.7703 379.961 59.9493 396.862C43.7659 415.316 19.5724 426.442 -4.52753 427.854C-67.5588 431.548 -82.9285 364.058 -44.0838 344.466ZM34.1363 319.691C30.6265 313.217 22.9388 310.855 16.7396 315.232C12.729 318.064 11.9983 323.22 12.9175 327.511C15.4728 339.439 45.53 340.708 34.1363 319.691Z" fill="url(#paint1_linear)"/>
<defs>
<linearGradient id="paint0_linear" x1="470.349" y1="-25.3876" x2="200.858" y2="615.715" gradientUnits="userSpaceOnUse">
<stop stop-color="#6969FF"/>
<stop offset="1" stop-color="#4444F0"/>
</linearGradient>
<linearGradient id="paint1_linear" x1="47.5908" y1="308.839" x2="14.64" y2="422.955" gradientUnits="userSpaceOnUse">
<stop stop-color="#6969FF"/>
<stop offset="1" stop-color="#4444F0"/>
</linearGradient>
</defs>
</svg>
