<svg  viewBox="0 0 19 20" fill="none" xmlns="http://www.w3.org/2000/svg">
<path fill-rule="evenodd" clip-rule="evenodd" d="M18.4615 12.4635C18.4615 13.4699 17.6708 14.2857 16.6954 14.2857H10.9846V17.1667C10.9846 18.7315 9.7551 20 8.23846 20C7.71591 20 7.2923 19.563 7.2923 19.0238V16.0727C7.2923 15.2214 6.94525 14.4147 6.3449 13.8448C6.26147 13.7828 6.18171 13.7148 6.10624 13.6411C5.4853 13.0347 4.712 12.5929 3.85181 12.3827C3.86831 12.2983 3.87701 12.2109 3.87701 12.1215V2.16419C3.87701 2.07478 3.86831 1.98747 3.85182 1.90307C4.712 1.69287 5.48528 1.25101 6.10624 0.644675C6.52643 0.234316 7.07943 1.41979e-05 7.658 1.41979e-05H16.6954C17.6708 1.41979e-05 18.4615 0.815816 18.4615 1.82218C18.4615 2.25351 18.3162 2.64967 18.0734 2.96163C17.783 3.33477 17.783 3.85673 18.0734 4.22982C18.3163 4.54178 18.4615 4.93798 18.4615 5.36928C18.4615 5.80061 18.3162 6.19677 18.0734 6.50873C17.783 6.88187 17.783 7.40383 18.0734 7.77692C18.3163 8.08888 18.4615 8.48504 18.4615 8.91638C18.4615 9.34772 18.3162 9.74387 18.0734 10.0558C17.783 10.429 17.783 10.9509 18.0734 11.324C18.3162 11.6361 18.4615 12.0323 18.4615 12.4636V12.4635ZM0 0.931181V13.3545C0 13.8688 0.404072 14.2857 0.90253 14.2857C1.67859 14.2857 2.30772 13.6366 2.30772 12.8359V1.4498C2.30768 0.649105 1.67856 0 0.90253 0C0.404072 0 0 0.4169 0 0.931181Z" fill="#A4A4A4"/>
</svg>
