<svg width="1075" height="863" viewBox="0 0 1075 863" fill="none" xmlns="http://www.w3.org/2000/svg">
<path fill-rule="evenodd" clip-rule="evenodd" d="M257.036 577.729C266.588 413.5 184.716 378.5 139.024 281.698C97.198 193.085 107.943 78.6566 187.419 0C469.946 0 892.473 0 1175 0V886.925C1119.99 1070.08 176.268 1070.08 162.5 850.063C153.909 712.769 251 681.5 257.036 577.729Z" fill="url(#paint0_linear)"/>
<path fill-rule="evenodd" clip-rule="evenodd" d="M34.5829 547.78C84.6356 522.269 133.236 559.266 164.394 560.481C182.759 561.196 197.316 549.502 199.702 535.493C202.233 520.623 207.029 514.131 212.228 514.387C216.824 514.612 221.736 520.113 225.675 529.761C238.762 561.81 228.136 606.189 204 634C177.645 664.367 138.247 682.676 99 685C-3.64604 691.078 -28.6755 580.019 34.5829 547.78ZM161.964 507.01C156.248 496.357 143.729 492.47 133.633 499.673C127.102 504.333 125.912 512.818 127.409 519.879C131.57 539.507 180.518 541.595 161.964 507.01Z" fill="url(#paint1_linear)"/>
<defs>
<linearGradient id="paint0_linear" x1="846.495" y1="-39.4544" x2="427.685" y2="956.871" gradientUnits="userSpaceOnUse">
<stop stop-color="#6969FF"/>
<stop offset="1" stop-color="#4444F0"/>
</linearGradient>
<linearGradient id="paint1_linear" x1="183.874" y1="489.154" x2="129.172" y2="676.634" gradientUnits="userSpaceOnUse">
<stop stop-color="#6969FF"/>
<stop offset="1" stop-color="#4444F0"/>
</linearGradient>
</defs>
</svg>
