<svg  viewBox="0 0 19 20" fill="none" xmlns="http://www.w3.org/2000/svg">
<path fill-rule="evenodd" clip-rule="evenodd" d="M18.4615 7.53646C18.4615 6.53011 17.6708 5.71427 16.6954 5.71427H10.9846V2.83333C10.9846 1.2685 9.7551 0 8.23846 0C7.71591 0 7.2923 0.43705 7.2923 0.976194V3.9273C7.2923 4.77863 6.94525 5.58525 6.3449 6.15522C6.26147 6.21722 6.18171 6.2852 6.10624 6.3589C5.4853 6.96525 4.712 7.4071 3.85181 7.61732C3.86831 7.70174 3.87701 7.78906 3.87701 7.8785V17.8358C3.87701 17.9252 3.86831 18.0125 3.85182 18.0969C4.712 18.3071 5.48528 18.749 6.10624 19.3553C6.52643 19.7657 7.07943 20 7.658 20H16.6954C17.6708 20 18.4615 19.1842 18.4615 18.1778C18.4615 17.7465 18.3162 17.3503 18.0734 17.0384C17.783 16.6652 17.783 16.1433 18.0734 15.7702C18.3163 15.4582 18.4615 15.062 18.4615 14.6307C18.4615 14.1994 18.3162 13.8032 18.0734 13.4913C17.783 13.1181 17.783 12.5962 18.0734 12.2231C18.3163 11.9111 18.4615 11.515 18.4615 11.0836C18.4615 10.6523 18.3162 10.2561 18.0734 9.94417C17.783 9.57103 17.783 9.04912 18.0734 8.67598C18.3162 8.36394 18.4615 7.96774 18.4615 7.53645V7.53646ZM0 19.0688V6.64546C0 6.13117 0.404072 5.71427 0.90253 5.71427C1.67859 5.71427 2.30772 6.36338 2.30772 7.16408V18.5502C2.30768 19.3509 1.67856 20 0.90253 20C0.404072 20 0 19.5831 0 19.0688Z" fill="#D23D20"/>
</svg>
