<svg width="32" height="32" viewBox="0 0 32 32" fill="none" xmlns="http://www.w3.org/2000/svg">
<path opacity="0.12" fill-rule="evenodd" clip-rule="evenodd" d="M24.7749 8.8231C24.7795 9.4151 24.4741 9.99253 23.9255 10.3097C23.1134 10.7783 22.0735 10.4999 21.6045 9.68781C21.4502 9.42043 21.377 9.12852 21.377 8.84017V3.57189C21.377 2.63429 22.1382 1.87305 23.0757 1.87305C24.0137 1.87305 24.7749 2.63429 24.7749 3.57189V8.8231Z" fill="#D23D20"/>
<path opacity="0.6" fill-rule="evenodd" clip-rule="evenodd" d="M7.22661 23.177C7.22199 22.585 7.5274 22.0076 8.07601 21.6904C8.88806 21.2218 9.92802 21.5002 10.397 22.3123C10.5513 22.5797 10.6245 22.8716 10.6245 23.16V28.4282C10.6245 29.3658 9.86332 30.1271 8.92575 30.1271C7.98783 30.1271 7.22661 29.3658 7.22661 28.4282V23.177Z" fill="#D23D20"/>
<path opacity="0.84" fill-rule="evenodd" clip-rule="evenodd" d="M23.175 24.775C22.583 24.7796 22.0056 24.4742 21.6885 23.9256C21.2199 23.1135 21.4983 22.0735 22.3103 21.6045C22.5777 21.4502 22.8696 21.377 23.1579 21.377H28.426C29.3636 21.377 30.1248 22.1382 30.1248 23.0758C30.1248 24.0138 29.3636 24.775 28.426 24.775H23.175Z" fill="#D23D20"/>
<path opacity="0.36" fill-rule="evenodd" clip-rule="evenodd" d="M8.82283 7.22661C9.41481 7.22199 9.99221 7.52741 10.3094 8.07604C10.778 8.88813 10.4996 9.92813 9.68751 10.3971C9.42015 10.5514 9.12825 10.6247 8.8399 10.6247H3.57183C2.63426 10.6247 1.87305 9.86342 1.87305 8.92582C1.87305 7.98786 2.63426 7.22661 3.57183 7.22661H8.82283Z" fill="#D23D20"/>
<path opacity="0.92" fill-rule="evenodd" clip-rule="evenodd" d="M26.6027 20.0106C26.0921 20.3107 25.4394 20.3352 24.8904 20.0184C24.0783 19.5494 23.8 18.5094 24.2686 17.6977C24.4229 17.4303 24.639 17.2209 24.8886 17.0765L29.4509 14.4426C30.263 13.9736 31.303 14.2523 31.7719 15.0644C32.2405 15.8765 31.9621 16.9162 31.1501 17.3851L26.6027 20.0106Z" fill="#D23D20"/>
<path opacity="0.44" fill-rule="evenodd" clip-rule="evenodd" d="M5.39677 11.9893C5.90733 11.6892 6.56011 11.6647 7.10907 11.9815C7.92113 12.4505 8.19952 13.4905 7.73091 14.3022C7.57661 14.5696 7.36044 14.779 7.11085 14.9234L2.54852 17.5573C1.73647 18.0263 0.696504 17.7475 0.227544 16.9355C-0.241061 16.1234 0.0373284 15.0837 0.849387 14.6147L5.39677 11.9893Z" fill="#D23D20"/>
<path opacity="0.68" fill-rule="evenodd" clip-rule="evenodd" d="M11.9893 26.6028C11.6892 26.0922 11.6647 25.4394 11.9815 24.8904C12.4504 24.0783 13.4904 23.7999 14.3021 24.2686C14.5695 24.4229 14.7789 24.6391 14.9232 24.8887L17.5571 29.4512C18.0261 30.2632 17.7473 31.3032 16.9353 31.7722C16.1232 32.2408 15.0836 31.9624 14.6146 31.1504L11.9893 26.6028Z" fill="#D23D20"/>
<path opacity="0.2" fill-rule="evenodd" clip-rule="evenodd" d="M20.0084 5.39698C20.3085 5.90756 20.333 6.56036 20.0162 7.10934C19.5472 7.92143 18.5073 8.19983 17.6956 7.73121C17.4282 7.5769 17.2188 7.36072 17.0745 7.11112L14.4406 2.54862C13.9716 1.73653 14.2504 0.696531 15.0624 0.227552C15.8745 -0.241071 16.9141 0.0373298 17.3831 0.84942L20.0084 5.39698Z" fill="#D23D20"/>
<path fill-rule="evenodd" clip-rule="evenodd" d="M27.1856 14.1722C26.8934 14.687 26.3405 15.0347 25.7066 15.0347C24.769 15.0347 24.0078 14.2735 24.0078 13.3359C24.0078 13.0273 24.0903 12.7378 24.2343 12.4882L26.8685 7.92575C27.3371 7.11366 28.3771 6.8349 29.1891 7.30388C30.0012 7.77251 30.2799 8.81251 29.811 9.6246L27.1856 14.1722Z" fill="#D23D20"/>
<path opacity="0.52" fill-rule="evenodd" clip-rule="evenodd" d="M4.81006 17.8294C5.10231 17.3145 5.65518 16.9668 6.28911 16.9668C7.22668 16.9668 7.9879 17.728 7.9879 18.6656C7.9879 18.9743 7.90541 19.2637 7.76142 19.5133L5.1272 24.0758C4.6586 24.8879 3.61864 25.1666 2.80658 24.6977C1.99452 24.229 1.71577 23.189 2.18473 22.3769L4.81006 17.8294Z" fill="#D23D20"/>
<path opacity="0.76" fill-rule="evenodd" clip-rule="evenodd" d="M17.8254 27.1877C17.3106 26.8955 16.9629 26.3426 16.9629 25.7086C16.9629 24.771 17.7241 24.0098 18.6617 24.0098C18.9703 24.0098 19.2597 24.0923 19.5093 24.2363L24.0716 26.8706C24.8837 27.3392 25.1624 28.3792 24.6934 29.1913C24.2248 30.0034 23.1849 30.2821 22.3728 29.8132L17.8254 27.1877Z" fill="#D23D20"/>
<path opacity="0.28" fill-rule="evenodd" clip-rule="evenodd" d="M14.1699 4.81212C14.6848 5.10439 15.0325 5.65728 15.0325 6.29123C15.0325 7.22884 14.2713 7.99008 13.3337 7.99008C13.0251 7.99008 12.7357 7.90759 12.4861 7.76359L7.92376 5.12928C7.1117 4.66065 6.83296 3.62065 7.30192 2.80856C7.77053 1.99647 8.81049 1.71772 9.62255 2.18669L14.1699 4.81212Z" fill="#D23D20"/>
</svg>
