<svg  viewBox="0 0 22 20" fill="none" xmlns="http://www.w3.org/2000/svg">
<path d="M12.1363 0.688339L14.7614 5.99882L20.8923 6.73117C21.5831 6.81115 22.0748 7.40864 21.9906 8.0652C21.9499 8.38198 21.7827 8.65432 21.5435 8.84251L17.0934 12.8096L18.255 18.579C18.3854 19.2277 17.9377 19.8545 17.2551 19.9784C16.9559 20.0327 16.6606 19.9815 16.4131 19.8519L10.9989 17.0192L5.58467 19.8519C4.97527 20.1702 4.20967 19.9585 3.87527 19.3793C3.72842 19.1247 3.68882 18.8419 3.74272 18.5774L4.90432 12.8096L0.395972 8.79128C-0.110028 8.33859 -0.134228 7.58167 0.341522 7.10127C0.551622 6.88904 0.823872 6.7662 1.10547 6.73326V6.73117L7.23577 5.99882L9.86092 0.688339C10.1546 0.0913733 10.9026 -0.166336 11.5307 0.112283C11.8085 0.235649 12.0164 0.443698 12.1363 0.688339Z" fill="#D23D20"/>
</svg>
