<svg width="1699" height="2167" viewBox="0 0 1699 2167" fill="none" xmlns="http://www.w3.org/2000/svg">
<path fill-rule="evenodd" clip-rule="evenodd" d="M1477.69 1936C1482.48 1936 1486.37 1939.9 1486.37 1944.7C1486.37 1949.51 1482.48 1953.4 1477.69 1953.4C1472.89 1953.4 1469 1949.51 1469 1944.7C1469 1939.9 1472.89 1936 1477.69 1936ZM1477.69 2149.6C1482.48 2149.6 1486.37 2153.49 1486.37 2158.3C1486.37 2163.1 1482.48 2167 1477.69 2167C1472.89 2167 1469 2163.1 1469 2158.3C1469 2153.49 1472.89 2149.6 1477.69 2149.6ZM1690.31 2149.6C1695.11 2149.6 1699 2153.49 1699 2158.3C1699 2163.1 1695.11 2167 1690.31 2167C1685.52 2167 1681.63 2163.1 1681.63 2158.3C1681.63 2153.49 1685.52 2149.6 1690.31 2149.6ZM1654.88 2149.6C1659.67 2149.6 1663.56 2153.49 1663.56 2158.3C1663.56 2163.1 1659.67 2167 1654.88 2167C1650.08 2167 1646.19 2163.1 1646.19 2158.3C1646.19 2153.49 1650.08 2149.6 1654.88 2149.6ZM1619.44 2149.6C1624.24 2149.6 1628.12 2153.49 1628.12 2158.3C1628.12 2163.1 1624.24 2167 1619.44 2167C1614.64 2167 1610.75 2163.1 1610.75 2158.3C1610.75 2153.49 1614.64 2149.6 1619.44 2149.6ZM1584 2149.6C1588.8 2149.6 1592.69 2153.49 1592.69 2158.3C1592.69 2163.1 1588.8 2167 1584 2167C1579.2 2167 1575.31 2163.1 1575.31 2158.3C1575.31 2153.49 1579.2 2149.6 1584 2149.6ZM1548.56 2149.6C1553.36 2149.6 1557.25 2153.49 1557.25 2158.3C1557.25 2163.1 1553.36 2167 1548.56 2167C1543.76 2167 1539.88 2163.1 1539.88 2158.3C1539.88 2153.49 1543.76 2149.6 1548.56 2149.6ZM1513.12 2149.6C1517.92 2149.6 1521.81 2153.49 1521.81 2158.3C1521.81 2163.1 1517.92 2167 1513.12 2167C1508.33 2167 1504.44 2163.1 1504.44 2158.3C1504.44 2153.49 1508.33 2149.6 1513.12 2149.6ZM1477.69 2114C1482.48 2114 1486.37 2117.89 1486.37 2122.7C1486.37 2127.5 1482.48 2131.4 1477.69 2131.4C1472.89 2131.4 1469 2127.5 1469 2122.7C1469 2117.89 1472.89 2114 1477.69 2114ZM1690.31 2114C1695.11 2114 1699 2117.89 1699 2122.7C1699 2127.5 1695.11 2131.4 1690.31 2131.4C1685.52 2131.4 1681.63 2127.5 1681.63 2122.7C1681.63 2117.89 1685.52 2114 1690.31 2114ZM1654.88 2114C1659.67 2114 1663.56 2117.89 1663.56 2122.7C1663.56 2127.5 1659.67 2131.4 1654.88 2131.4C1650.08 2131.4 1646.19 2127.5 1646.19 2122.7C1646.19 2117.89 1650.08 2114 1654.88 2114ZM1619.44 2114C1624.24 2114 1628.12 2117.89 1628.12 2122.7C1628.12 2127.5 1624.24 2131.4 1619.44 2131.4C1614.64 2131.4 1610.75 2127.5 1610.75 2122.7C1610.75 2117.89 1614.64 2114 1619.44 2114ZM1584 2114C1588.8 2114 1592.69 2117.89 1592.69 2122.7C1592.69 2127.5 1588.8 2131.4 1584 2131.4C1579.2 2131.4 1575.31 2127.5 1575.31 2122.7C1575.31 2117.89 1579.2 2114 1584 2114ZM1548.56 2114C1553.36 2114 1557.25 2117.89 1557.25 2122.7C1557.25 2127.5 1553.36 2131.4 1548.56 2131.4C1543.76 2131.4 1539.88 2127.5 1539.88 2122.7C1539.88 2117.89 1543.76 2114 1548.56 2114ZM1513.12 2114C1517.92 2114 1521.81 2117.89 1521.81 2122.7C1521.81 2127.5 1517.92 2131.4 1513.12 2131.4C1508.33 2131.4 1504.44 2127.5 1504.44 2122.7C1504.44 2117.89 1508.33 2114 1513.12 2114ZM1477.69 2078.4C1482.48 2078.4 1486.37 2082.29 1486.37 2087.1C1486.37 2091.91 1482.48 2095.8 1477.69 2095.8C1472.89 2095.8 1469 2091.91 1469 2087.1C1469 2082.29 1472.89 2078.4 1477.69 2078.4ZM1690.31 2078.4C1695.11 2078.4 1699 2082.29 1699 2087.1C1699 2091.91 1695.11 2095.8 1690.31 2095.8C1685.52 2095.8 1681.63 2091.91 1681.63 2087.1C1681.63 2082.29 1685.52 2078.4 1690.31 2078.4ZM1654.88 2078.4C1659.67 2078.4 1663.56 2082.29 1663.56 2087.1C1663.56 2091.91 1659.67 2095.8 1654.88 2095.8C1650.08 2095.8 1646.19 2091.91 1646.19 2087.1C1646.19 2082.29 1650.08 2078.4 1654.88 2078.4ZM1619.44 2078.4C1624.24 2078.4 1628.12 2082.29 1628.12 2087.1C1628.12 2091.91 1624.24 2095.8 1619.44 2095.8C1614.64 2095.8 1610.75 2091.91 1610.75 2087.1C1610.75 2082.29 1614.64 2078.4 1619.44 2078.4ZM1584 2078.4C1588.8 2078.4 1592.69 2082.29 1592.69 2087.1C1592.69 2091.91 1588.8 2095.8 1584 2095.8C1579.2 2095.8 1575.31 2091.91 1575.31 2087.1C1575.31 2082.29 1579.2 2078.4 1584 2078.4ZM1548.56 2078.4C1553.36 2078.4 1557.25 2082.29 1557.25 2087.1C1557.25 2091.91 1553.36 2095.8 1548.56 2095.8C1543.76 2095.8 1539.88 2091.91 1539.88 2087.1C1539.88 2082.29 1543.76 2078.4 1548.56 2078.4ZM1513.12 2078.4C1517.92 2078.4 1521.81 2082.29 1521.81 2087.1C1521.81 2091.91 1517.92 2095.8 1513.12 2095.8C1508.33 2095.8 1504.44 2091.91 1504.44 2087.1C1504.44 2082.29 1508.33 2078.4 1513.12 2078.4ZM1477.69 2042.8C1482.48 2042.8 1486.37 2046.7 1486.37 2051.5C1486.37 2056.31 1482.48 2060.2 1477.69 2060.2C1472.89 2060.2 1469 2056.31 1469 2051.5C1469 2046.7 1472.89 2042.8 1477.69 2042.8ZM1690.31 2042.8C1695.11 2042.8 1699 2046.7 1699 2051.5C1699 2056.31 1695.11 2060.2 1690.31 2060.2C1685.52 2060.2 1681.63 2056.31 1681.63 2051.5C1681.63 2046.7 1685.52 2042.8 1690.31 2042.8ZM1654.88 2042.8C1659.67 2042.8 1663.56 2046.7 1663.56 2051.5C1663.56 2056.31 1659.67 2060.2 1654.88 2060.2C1650.08 2060.2 1646.19 2056.31 1646.19 2051.5C1646.19 2046.7 1650.08 2042.8 1654.88 2042.8ZM1619.44 2042.8C1624.24 2042.8 1628.12 2046.7 1628.12 2051.5C1628.12 2056.31 1624.24 2060.2 1619.44 2060.2C1614.64 2060.2 1610.75 2056.31 1610.75 2051.5C1610.75 2046.7 1614.64 2042.8 1619.44 2042.8ZM1584 2042.8C1588.8 2042.8 1592.69 2046.7 1592.69 2051.5C1592.69 2056.31 1588.8 2060.2 1584 2060.2C1579.2 2060.2 1575.31 2056.31 1575.31 2051.5C1575.31 2046.7 1579.2 2042.8 1584 2042.8ZM1548.56 2042.8C1553.36 2042.8 1557.25 2046.7 1557.25 2051.5C1557.25 2056.31 1553.36 2060.2 1548.56 2060.2C1543.76 2060.2 1539.88 2056.31 1539.88 2051.5C1539.88 2046.7 1543.76 2042.8 1548.56 2042.8ZM1513.12 2042.8C1517.92 2042.8 1521.81 2046.7 1521.81 2051.5C1521.81 2056.31 1517.92 2060.2 1513.12 2060.2C1508.33 2060.2 1504.44 2056.31 1504.44 2051.5C1504.44 2046.7 1508.33 2042.8 1513.12 2042.8ZM1477.69 2007.2C1482.48 2007.2 1486.37 2011.1 1486.37 2015.9C1486.37 2020.71 1482.48 2024.6 1477.69 2024.6C1472.89 2024.6 1469 2020.71 1469 2015.9C1469 2011.1 1472.89 2007.2 1477.69 2007.2ZM1690.31 2007.2C1695.11 2007.2 1699 2011.1 1699 2015.9C1699 2020.71 1695.11 2024.6 1690.31 2024.6C1685.52 2024.6 1681.63 2020.71 1681.63 2015.9C1681.63 2011.1 1685.52 2007.2 1690.31 2007.2ZM1654.88 2007.2C1659.67 2007.2 1663.56 2011.1 1663.56 2015.9C1663.56 2020.71 1659.67 2024.6 1654.88 2024.6C1650.08 2024.6 1646.19 2020.71 1646.19 2015.9C1646.19 2011.1 1650.08 2007.2 1654.88 2007.2ZM1619.44 2007.2C1624.24 2007.2 1628.12 2011.1 1628.12 2015.9C1628.12 2020.71 1624.24 2024.6 1619.44 2024.6C1614.64 2024.6 1610.75 2020.71 1610.75 2015.9C1610.75 2011.1 1614.64 2007.2 1619.44 2007.2ZM1584 2007.2C1588.8 2007.2 1592.69 2011.1 1592.69 2015.9C1592.69 2020.71 1588.8 2024.6 1584 2024.6C1579.2 2024.6 1575.31 2020.71 1575.31 2015.9C1575.31 2011.1 1579.2 2007.2 1584 2007.2ZM1548.56 2007.2C1553.36 2007.2 1557.25 2011.1 1557.25 2015.9C1557.25 2020.71 1553.36 2024.6 1548.56 2024.6C1543.76 2024.6 1539.88 2020.71 1539.88 2015.9C1539.88 2011.1 1543.76 2007.2 1548.56 2007.2ZM1513.12 2007.2C1517.92 2007.2 1521.81 2011.1 1521.81 2015.9C1521.81 2020.71 1517.92 2024.6 1513.12 2024.6C1508.33 2024.6 1504.44 2020.71 1504.44 2015.9C1504.44 2011.1 1508.33 2007.2 1513.12 2007.2ZM1477.69 1971.6C1482.48 1971.6 1486.37 1975.5 1486.37 1980.3C1486.37 1985.11 1482.48 1989 1477.69 1989C1472.89 1989 1469 1985.11 1469 1980.3C1469 1975.5 1472.89 1971.6 1477.69 1971.6ZM1690.31 1971.6C1695.11 1971.6 1699 1975.5 1699 1980.3C1699 1985.11 1695.11 1989 1690.31 1989C1685.52 1989 1681.63 1985.11 1681.63 1980.3C1681.63 1975.5 1685.52 1971.6 1690.31 1971.6ZM1654.88 1971.6C1659.67 1971.6 1663.56 1975.5 1663.56 1980.3C1663.56 1985.11 1659.67 1989 1654.88 1989C1650.08 1989 1646.19 1985.11 1646.19 1980.3C1646.19 1975.5 1650.08 1971.6 1654.88 1971.6ZM1619.44 1971.6C1624.24 1971.6 1628.12 1975.5 1628.12 1980.3C1628.12 1985.11 1624.24 1989 1619.44 1989C1614.64 1989 1610.75 1985.11 1610.75 1980.3C1610.75 1975.5 1614.64 1971.6 1619.44 1971.6ZM1584 1971.6C1588.8 1971.6 1592.69 1975.5 1592.69 1980.3C1592.69 1985.11 1588.8 1989 1584 1989C1579.2 1989 1575.31 1985.11 1575.31 1980.3C1575.31 1975.5 1579.2 1971.6 1584 1971.6ZM1548.56 1971.6C1553.36 1971.6 1557.25 1975.5 1557.25 1980.3C1557.25 1985.11 1553.36 1989 1548.56 1989C1543.76 1989 1539.88 1985.11 1539.88 1980.3C1539.88 1975.5 1543.76 1971.6 1548.56 1971.6ZM1513.12 1971.6C1517.92 1971.6 1521.81 1975.5 1521.81 1980.3C1521.81 1985.11 1517.92 1989 1513.12 1989C1508.33 1989 1504.44 1985.11 1504.44 1980.3C1504.44 1975.5 1508.33 1971.6 1513.12 1971.6ZM1690.31 1936C1695.11 1936 1699 1939.9 1699 1944.7C1699 1949.51 1695.11 1953.4 1690.31 1953.4C1685.52 1953.4 1681.63 1949.51 1681.63 1944.7C1681.63 1939.9 1685.52 1936 1690.31 1936ZM1654.88 1936C1659.67 1936 1663.56 1939.9 1663.56 1944.7C1663.56 1949.51 1659.67 1953.4 1654.88 1953.4C1650.08 1953.4 1646.19 1949.51 1646.19 1944.7C1646.19 1939.9 1650.08 1936 1654.88 1936ZM1619.44 1936C1624.24 1936 1628.12 1939.9 1628.12 1944.7C1628.12 1949.51 1624.24 1953.4 1619.44 1953.4C1614.64 1953.4 1610.75 1949.51 1610.75 1944.7C1610.75 1939.9 1614.64 1936 1619.44 1936ZM1584 1936C1588.8 1936 1592.69 1939.9 1592.69 1944.7C1592.69 1949.51 1588.8 1953.4 1584 1953.4C1579.2 1953.4 1575.31 1949.51 1575.31 1944.7C1575.31 1939.9 1579.2 1936 1584 1936ZM1548.56 1936C1553.36 1936 1557.25 1939.9 1557.25 1944.7C1557.25 1949.51 1553.36 1953.4 1548.56 1953.4C1543.76 1953.4 1539.88 1949.51 1539.88 1944.7C1539.88 1939.9 1543.76 1936 1548.56 1936ZM1513.12 1936C1517.92 1936 1521.81 1939.9 1521.81 1944.7C1521.81 1949.51 1517.92 1953.4 1513.12 1953.4C1508.33 1953.4 1504.44 1949.51 1504.44 1944.7C1504.44 1939.9 1508.33 1936 1513.12 1936Z" fill="#F4F5FA"/>
<path fill-rule="evenodd" clip-rule="evenodd" d="M73.6858 0C78.4824 0 82.3711 3.89596 82.3711 8.70153C82.3711 13.5075 78.4824 17.4035 73.6858 17.4035C68.8887 17.4035 65 13.5075 65 8.70153C65 3.89596 68.8887 0 73.6858 0ZM73.6858 213.596C78.4824 213.596 82.3711 217.492 82.3711 222.298C82.3711 227.104 78.4824 231 73.6858 231C68.8887 231 65 227.104 65 222.298C65 217.492 68.8887 213.596 73.6858 213.596ZM286.314 213.596C291.111 213.596 295 217.492 295 222.298C295 227.104 291.111 231 286.314 231C281.518 231 277.629 227.104 277.629 222.298C277.629 217.492 281.518 213.596 286.314 213.596ZM250.876 213.596C255.673 213.596 259.562 217.492 259.562 222.298C259.562 227.104 255.673 231 250.876 231C246.08 231 242.191 227.104 242.191 222.298C242.191 217.492 246.08 213.596 250.876 213.596ZM215.438 213.596C220.235 213.596 224.124 217.492 224.124 222.298C224.124 227.104 220.235 231 215.438 231C210.641 231 206.753 227.104 206.753 222.298C206.753 217.492 210.641 213.596 215.438 213.596ZM180 213.596C184.797 213.596 188.685 217.492 188.685 222.298C188.685 227.104 184.797 231 180 231C175.203 231 171.314 227.104 171.314 222.298C171.314 217.492 175.203 213.596 180 213.596ZM144.562 213.596C149.359 213.596 153.247 217.492 153.247 222.298C153.247 227.104 149.359 231 144.562 231C139.765 231 135.876 227.104 135.876 222.298C135.876 217.492 139.765 213.596 144.562 213.596ZM109.124 213.596C113.921 213.596 117.809 217.492 117.809 222.298C117.809 227.104 113.921 231 109.124 231C104.327 231 100.438 227.104 100.438 222.298C100.438 217.492 104.327 213.596 109.124 213.596ZM73.6858 177.997C78.4824 177.997 82.3711 181.893 82.3711 186.699C82.3711 191.505 78.4824 195.4 73.6858 195.4C68.8887 195.4 65 191.505 65 186.699C65 181.893 68.8887 177.997 73.6858 177.997ZM286.314 177.997C291.111 177.997 295 181.893 295 186.699C295 191.505 291.111 195.4 286.314 195.4C281.518 195.4 277.629 191.505 277.629 186.699C277.629 181.893 281.518 177.997 286.314 177.997ZM250.876 177.997C255.673 177.997 259.562 181.893 259.562 186.699C259.562 191.505 255.673 195.4 250.876 195.4C246.08 195.4 242.191 191.505 242.191 186.699C242.191 181.893 246.08 177.997 250.876 177.997ZM215.438 177.997C220.235 177.997 224.124 181.893 224.124 186.699C224.124 191.505 220.235 195.4 215.438 195.4C210.641 195.4 206.753 191.505 206.753 186.699C206.753 181.893 210.641 177.997 215.438 177.997ZM180 177.997C184.797 177.997 188.685 181.893 188.685 186.699C188.685 191.505 184.797 195.4 180 195.4C175.203 195.4 171.314 191.505 171.314 186.699C171.314 181.893 175.203 177.997 180 177.997ZM144.562 177.997C149.359 177.997 153.247 181.893 153.247 186.699C153.247 191.505 149.359 195.4 144.562 195.4C139.765 195.4 135.876 191.505 135.876 186.699C135.876 181.893 139.765 177.997 144.562 177.997ZM109.124 177.997C113.921 177.997 117.809 181.893 117.809 186.699C117.809 191.505 113.921 195.4 109.124 195.4C104.327 195.4 100.438 191.505 100.438 186.699C100.438 181.893 104.327 177.997 109.124 177.997ZM73.6858 142.398C78.4824 142.398 82.3711 146.294 82.3711 151.1C82.3711 155.906 78.4824 159.802 73.6858 159.802C68.8887 159.802 65 155.906 65 151.1C65 146.294 68.8887 142.398 73.6858 142.398ZM286.314 142.398C291.111 142.398 295 146.294 295 151.1C295 155.906 291.111 159.802 286.314 159.802C281.518 159.802 277.629 155.906 277.629 151.1C277.629 146.294 281.518 142.398 286.314 142.398ZM250.876 142.398C255.673 142.398 259.562 146.294 259.562 151.1C259.562 155.906 255.673 159.802 250.876 159.802C246.08 159.802 242.191 155.906 242.191 151.1C242.191 146.294 246.08 142.398 250.876 142.398ZM215.438 142.398C220.235 142.398 224.124 146.294 224.124 151.1C224.124 155.906 220.235 159.802 215.438 159.802C210.641 159.802 206.753 155.906 206.753 151.1C206.753 146.294 210.641 142.398 215.438 142.398ZM180 142.398C184.797 142.398 188.685 146.294 188.685 151.1C188.685 155.906 184.797 159.802 180 159.802C175.203 159.802 171.314 155.906 171.314 151.1C171.314 146.294 175.203 142.398 180 142.398ZM144.562 142.398C149.359 142.398 153.247 146.294 153.247 151.1C153.247 155.906 149.359 159.802 144.562 159.802C139.765 159.802 135.876 155.906 135.876 151.1C135.876 146.294 139.765 142.398 144.562 142.398ZM109.124 142.398C113.921 142.398 117.809 146.294 117.809 151.1C117.809 155.906 113.921 159.802 109.124 159.802C104.327 159.802 100.438 155.906 100.438 151.1C100.438 146.294 104.327 142.398 109.124 142.398ZM73.6858 106.799C78.4824 106.799 82.3711 110.695 82.3711 115.501C82.3711 120.307 78.4824 124.203 73.6858 124.203C68.8887 124.203 65 120.307 65 115.501C65 110.695 68.8887 106.799 73.6858 106.799ZM286.314 106.799C291.111 106.799 295 110.695 295 115.501C295 120.307 291.111 124.203 286.314 124.203C281.518 124.203 277.629 120.307 277.629 115.501C277.629 110.695 281.518 106.799 286.314 106.799ZM250.876 106.799C255.673 106.799 259.562 110.695 259.562 115.501C259.562 120.307 255.673 124.203 250.876 124.203C246.08 124.203 242.191 120.307 242.191 115.501C242.191 110.695 246.08 106.799 250.876 106.799ZM215.438 106.799C220.235 106.799 224.124 110.695 224.124 115.501C224.124 120.307 220.235 124.203 215.438 124.203C210.641 124.203 206.753 120.307 206.753 115.501C206.753 110.695 210.641 106.799 215.438 106.799ZM180 106.799C184.797 106.799 188.685 110.695 188.685 115.501C188.685 120.307 184.797 124.203 180 124.203C175.203 124.203 171.314 120.307 171.314 115.501C171.314 110.695 175.203 106.799 180 106.799ZM144.562 106.799C149.359 106.799 153.247 110.695 153.247 115.501C153.247 120.307 149.359 124.203 144.562 124.203C139.765 124.203 135.876 120.307 135.876 115.501C135.876 110.695 139.765 106.799 144.562 106.799ZM109.124 106.799C113.921 106.799 117.809 110.695 117.809 115.501C117.809 120.307 113.921 124.203 109.124 124.203C104.327 124.203 100.438 120.307 100.438 115.501C100.438 110.695 104.327 106.799 109.124 106.799ZM73.6858 71.1997C78.4824 71.1997 82.3711 75.0957 82.3711 79.9017C82.3711 84.7073 78.4824 88.6037 73.6858 88.6037C68.8887 88.6037 65 84.7073 65 79.9017C65 75.0957 68.8887 71.1997 73.6858 71.1997ZM286.314 71.1997C291.111 71.1997 295 75.0957 295 79.9017C295 84.7073 291.111 88.6037 286.314 88.6037C281.518 88.6037 277.629 84.7073 277.629 79.9017C277.629 75.0957 281.518 71.1997 286.314 71.1997ZM250.876 71.1997C255.673 71.1997 259.562 75.0957 259.562 79.9017C259.562 84.7073 255.673 88.6037 250.876 88.6037C246.08 88.6037 242.191 84.7073 242.191 79.9017C242.191 75.0957 246.08 71.1997 250.876 71.1997ZM215.438 71.1997C220.235 71.1997 224.124 75.0957 224.124 79.9017C224.124 84.7073 220.235 88.6037 215.438 88.6037C210.641 88.6037 206.753 84.7073 206.753 79.9017C206.753 75.0957 210.641 71.1997 215.438 71.1997ZM180 71.1997C184.797 71.1997 188.685 75.0957 188.685 79.9017C188.685 84.7073 184.797 88.6037 180 88.6037C175.203 88.6037 171.314 84.7073 171.314 79.9017C171.314 75.0957 175.203 71.1997 180 71.1997ZM144.562 71.1997C149.359 71.1997 153.247 75.0957 153.247 79.9017C153.247 84.7073 149.359 88.6037 144.562 88.6037C139.765 88.6037 135.876 84.7073 135.876 79.9017C135.876 75.0957 139.765 71.1997 144.562 71.1997ZM109.124 71.1997C113.921 71.1997 117.809 75.0957 117.809 79.9017C117.809 84.7073 113.921 88.6037 109.124 88.6037C104.327 88.6037 100.438 84.7073 100.438 79.9017C100.438 75.0957 104.327 71.1997 109.124 71.1997ZM73.6858 35.6007C78.4824 35.6007 82.3711 39.4967 82.3711 44.3027C82.3711 49.1083 78.4824 53.0046 73.6858 53.0046C68.8887 53.0046 65 49.1083 65 44.3027C65 39.4967 68.8887 35.6007 73.6858 35.6007ZM286.314 35.6007C291.111 35.6007 295 39.4967 295 44.3027C295 49.1083 291.111 53.0046 286.314 53.0046C281.518 53.0046 277.629 49.1083 277.629 44.3027C277.629 39.4967 281.518 35.6007 286.314 35.6007ZM250.876 35.6007C255.673 35.6007 259.562 39.4967 259.562 44.3027C259.562 49.1083 255.673 53.0046 250.876 53.0046C246.08 53.0046 242.191 49.1083 242.191 44.3027C242.191 39.4967 246.08 35.6007 250.876 35.6007ZM215.438 35.6007C220.235 35.6007 224.124 39.4967 224.124 44.3027C224.124 49.1083 220.235 53.0046 215.438 53.0046C210.641 53.0046 206.753 49.1083 206.753 44.3027C206.753 39.4967 210.641 35.6007 215.438 35.6007ZM180 35.6007C184.797 35.6007 188.685 39.4967 188.685 44.3027C188.685 49.1083 184.797 53.0046 180 53.0046C175.203 53.0046 171.314 49.1083 171.314 44.3027C171.314 39.4967 175.203 35.6007 180 35.6007ZM144.562 35.6007C149.359 35.6007 153.247 39.4967 153.247 44.3027C153.247 49.1083 149.359 53.0046 144.562 53.0046C139.765 53.0046 135.876 49.1083 135.876 44.3027C135.876 39.4967 139.765 35.6007 144.562 35.6007ZM109.124 35.6007C113.921 35.6007 117.809 39.4967 117.809 44.3027C117.809 49.1083 113.921 53.0046 109.124 53.0046C104.327 53.0046 100.438 49.1083 100.438 44.3027C100.438 39.4967 104.327 35.6007 109.124 35.6007ZM286.314 0C291.111 0 295 3.89596 295 8.70153C295 13.5075 291.111 17.4035 286.314 17.4035C281.518 17.4035 277.629 13.5075 277.629 8.70153C277.629 3.89596 281.518 0 286.314 0ZM250.876 0C255.673 0 259.562 3.89596 259.562 8.70153C259.562 13.5075 255.673 17.4035 250.876 17.4035C246.08 17.4035 242.191 13.5075 242.191 8.70153C242.191 3.89596 246.08 0 250.876 0ZM215.438 0C220.235 0 224.124 3.89596 224.124 8.70153C224.124 13.5075 220.235 17.4035 215.438 17.4035C210.641 17.4035 206.753 13.5075 206.753 8.70153C206.753 3.89596 210.641 0 215.438 0ZM180 0C184.797 0 188.685 3.89596 188.685 8.70153C188.685 13.5075 184.797 17.4035 180 17.4035C175.203 17.4035 171.314 13.5075 171.314 8.70153C171.314 3.89596 175.203 0 180 0ZM144.562 0C149.359 0 153.247 3.89596 153.247 8.70153C153.247 13.5075 149.359 17.4035 144.562 17.4035C139.765 17.4035 135.876 13.5075 135.876 8.70153C135.876 3.89596 139.765 0 144.562 0ZM109.124 0C113.921 0 117.809 3.89596 117.809 8.70153C117.809 13.5075 113.921 17.4035 109.124 17.4035C104.327 17.4035 100.438 13.5075 100.438 8.70153C100.438 3.89596 104.327 0 109.124 0Z" fill="#F4F5FA"/>
<path opacity="0.03" fill-rule="evenodd" clip-rule="evenodd" d="M71.9358 1340.69C111.665 1356.61 156.776 1337.31 172.695 1297.58C188.613 1257.85 169.311 1212.74 129.582 1196.82C89.8532 1180.9 44.7419 1200.21 28.8232 1239.94C12.9046 1279.66 32.2067 1324.78 71.9358 1340.69Z" fill="black"/>
<path opacity="0.03" fill-rule="evenodd" clip-rule="evenodd" d="M196.569 1451.72C265.366 1479.28 343.484 1445.86 371.05 1377.06C398.616 1308.26 365.191 1230.15 296.394 1202.58C227.596 1175.01 149.478 1208.44 121.912 1277.24C94.3465 1346.03 127.771 1424.15 196.569 1451.72ZM297.656 1446.75C267.048 1459.84 231.443 1461.26 198.097 1447.9C164.751 1434.54 139.977 1408.93 126.881 1378.32C113.784 1347.71 112.364 1312.11 125.726 1278.76C139.087 1245.42 164.699 1220.64 195.307 1207.55C225.915 1194.45 261.52 1193.03 294.866 1206.39C328.212 1219.75 352.985 1245.37 366.082 1275.97C379.178 1306.58 380.598 1342.19 367.237 1375.53C353.876 1408.88 328.264 1433.65 297.656 1446.75Z" fill="black"/>
</svg>
