<svg width="38" height="38" viewBox="0 0 38 38" fill="none" xmlns="http://www.w3.org/2000/svg">
<path fill-rule="evenodd" clip-rule="evenodd" d="M19 0C29.4945 0 38 8.50377 38 18.9962C38 29.4887 29.4945 37.9925 19 37.9925C8.50752 37.9925 0 29.4887 0 18.9962C0 8.50377 8.50752 0 19 0ZM16.2629 19.0149C16.3334 19.1123 16.2981 28.1091 16.2981 28.9936H20.5933V19.048L20.6286 19.0149C20.6286 19.0149 23.3657 19.048 23.434 19.0149H23.5045L23.8505 15.5678H20.5933C20.5933 15.0748 20.6286 14.5486 20.6286 14.0576C20.6286 13.5977 20.5933 13.0053 20.9062 12.7753L23.8505 12.4812V9.03409C22.8104 8.9678 21.3206 9.00095 20.2826 9.06724C16.0909 9.32825 16.2981 12.3817 16.2981 15.5678L14.1495 15.601V19.0149H16.2629Z" fill="white"/>
</svg>
