<svg width="38" height="38" viewBox="0 0 38 38" fill="none" xmlns="http://www.w3.org/2000/svg">
<path fill-rule="evenodd" clip-rule="evenodd" d="M18.9731 0C29.4842 0 38 8.46027 38 18.9693C38 29.4784 29.4842 37.9925 18.9731 37.9925C8.46194 37.9925 0 29.4784 0 18.9693C0 8.46027 8.46194 0 18.9731 0ZM11.8393 9.86272C13.0659 9.86272 14.0356 10.7825 14.0356 11.9571C14.0356 13.1316 13.0659 14.0514 11.8393 14.0514C10.5629 14.0514 9.59117 13.1316 9.59117 11.9571C9.59117 10.7825 10.5629 9.86272 11.8393 9.86272ZM16.1303 15.7377C16.1303 16.1458 16.1821 16.6057 16.1821 17.0655V24.113C16.1821 25.4927 16.1303 26.5637 16.1303 27.9951H20.2162V20.7426C20.2162 20.2309 20.6265 19.568 20.8814 19.3111C21.9028 18.2898 24.5073 18.1883 24.5073 21.3537V27.9951H28.5435V20.4857C28.5435 19.4644 28.1353 18.0868 27.7272 17.4736C26.5005 15.6341 24.2007 15.0727 22.311 15.7356C21.3413 16.0422 20.8814 16.6036 20.3198 17.3701C20.1665 17.5234 20.3198 17.3701 20.2162 17.4736V15.7356H16.1303V15.7377ZM9.79629 15.7377V27.9951H13.8304V15.7377H9.79629Z" fill="white"/>
</svg>
