<svg width="38" height="38" viewBox="0 0 38 38" fill="none" xmlns="http://www.w3.org/2000/svg">
<path fill-rule="evenodd" clip-rule="evenodd" d="M19.0155 0C29.4929 0 38 8.50377 38 19.0107C38 29.4887 29.4929 37.9925 19.0155 37.9925C8.50706 37.9925 0 29.4887 0 19.0107C0 8.50377 8.50706 0 19.0155 0ZM15.856 10.8301C17.2524 10.739 22.5999 10.739 23.845 10.9524C25.1524 11.1347 25.9107 11.6816 26.4577 12.4729C27.0668 13.3533 27.1269 14.6004 27.158 15.8185C27.218 17.1857 27.187 18.555 27.187 19.9243C27.187 22.2962 27.4915 25.155 25.546 26.4622C24.6054 27.0712 23.4514 27.1002 22.1751 27.1624C20.6254 27.2224 15.4913 27.2535 14.155 27.0401C12.9098 26.8578 12.0582 26.3109 11.5423 25.5196C10.9353 24.6081 10.9042 23.4211 10.8441 22.174C10.782 20.8358 10.813 19.4375 10.813 18.0682C10.813 15.6962 10.5396 12.8375 12.483 11.5303C13.5168 10.8612 14.5196 10.9213 15.856 10.8301ZM9.04989 22.6008C9.11204 24.1213 9.32337 25.4595 10.0527 26.5533C10.6307 27.4358 11.6024 28.2561 12.9698 28.6518C14.3373 29.0164 16.0984 28.9874 17.588 28.9874C19.2579 28.9874 20.9299 29.0164 22.5398 28.9563C24.1185 28.8963 25.4549 28.7119 26.5488 27.9516C29.1324 26.2198 28.9812 23.2989 28.9812 20.4091C28.9812 18.7373 29.0413 17.0655 28.9501 15.4228C28.888 13.8712 28.7056 12.533 27.9473 11.4392C27.2781 10.4034 26.2753 9.70528 25.0612 9.34068C23.6938 8.97609 21.8706 9.00509 20.412 9.00509C18.7731 9.00509 17.1011 8.97609 15.4602 9.03616C13.8815 9.09624 12.5451 9.30961 11.4512 10.0388C8.86964 11.7727 9.02088 14.6936 9.02088 17.5814C9.02088 19.2552 8.9608 20.958 9.04989 22.6008ZM15.7047 19.2552C15.5514 17.339 17.01 15.8185 18.7421 15.6652C20.6565 15.545 22.1751 17.0034 22.3264 18.7373C22.4776 20.6535 20.99 22.174 19.2579 22.3273C17.3435 22.4785 15.8249 20.9891 15.7047 19.2552ZM18.4375 13.9023C15.7938 14.2068 13.5479 16.5477 13.9125 19.5887C14.215 22.2051 16.5852 24.4548 19.5915 24.0902C22.2062 23.7857 24.4542 21.4448 24.0895 18.4038C23.785 15.7874 21.4458 13.5377 18.4375 13.9023ZM24.0584 12.6552C22.5398 13.0198 23.0246 15.3316 24.5743 15.0271C25.1524 14.9049 25.6683 14.329 25.517 13.5667C25.3948 12.9908 24.7877 12.504 24.0584 12.6552Z" fill="white"/>
</svg>
