<svg width="60" height="91" viewBox="0 0 60 91" fill="none" xmlns="http://www.w3.org/2000/svg">
<path d="M0 66.4785H8.44167V75.4837L17.6468 66.4785H27.8176L15.8379 78.2169L28.9028 90.9995H18.2102L10.4923 83.4426L8.44167 85.4522V90.9995H0V66.4785Z" fill="white"/>
<path d="M48.4712 83.282V90.9995H30.7432V66.4785H39.1855V83.282H48.4712Z" fill="white"/>
<path d="M51.2793 66.4785H59.721V90.9995H51.2793V66.4785Z" fill="white"/>
<path d="M40.028 0V59.7216H45.4101C44.8802 58.4362 44.5907 57.0385 44.5907 55.5601C44.5907 49.5348 49.4752 44.6507 55.5005 44.6507C57.0107 44.6507 58.441 44.9558 59.7266 45.5018V0H40.028ZM20.9395 0H0.00390625V59.7216H20.7473V18.4613H2.47837L20.9395 0Z" fill="#D23D20"/>
<path d="M59.6553 55.5612C59.6553 57.8563 57.7954 59.7169 55.5004 59.7169C53.2053 59.7169 51.3447 57.8563 51.3447 55.5612C51.3447 53.2666 53.2053 51.4062 55.5004 51.4062C57.7954 51.4062 59.6553 53.2666 59.6553 55.5612Z" fill="#D23D20"/>
</svg>
