<svg width="38" height="38" viewBox="0 0 38 38" fill="none" xmlns="http://www.w3.org/2000/svg">
<path fill-rule="evenodd" clip-rule="evenodd" d="M18.9775 0C29.5006 0 38 8.49941 38 18.9775C38 29.5006 29.5006 38 18.9775 38C8.49941 38 0 29.5006 0 18.9775C0 8.49941 8.49941 0 18.9775 0ZM16.729 22.3053V15.6947L22.5302 18.9775L16.729 22.3053ZM29.6805 13.5811C29.4556 12.6367 28.6911 11.8722 27.7018 11.6024C25.9929 11.1077 18.9775 11.1077 18.9775 11.1077C18.9775 11.1077 12.0071 11.1077 10.2533 11.6024C9.30888 11.8722 8.54438 12.6367 8.27456 13.5811C7.82485 15.3349 7.82485 18.9775 7.82485 18.9775C7.82485 18.9775 7.82485 22.6651 8.27456 24.4189C8.54438 25.3633 9.30888 26.1278 10.2533 26.3976C12.0071 26.8473 18.9775 26.8473 18.9775 26.8473C18.9775 26.8473 25.9929 26.8473 27.7018 26.3976C28.6911 26.1278 29.4556 25.3633 29.6805 24.4189C30.1751 22.6651 30.1751 18.9775 30.1751 18.9775C30.1751 18.9775 30.1751 15.3349 29.6805 13.5811Z" fill="white"/>
</svg>
