<svg width="29" height="26" viewBox="0 0 29 26" fill="none" xmlns="http://www.w3.org/2000/svg">
<path fill-rule="evenodd" clip-rule="evenodd" d="M15.0413 23.8198C15.0413 22.6157 14.0568 21.6395 12.8425 21.6395C11.6283 21.6395 10.6438 22.6157 10.6438 23.8198C10.6438 25.0238 11.6283 26 12.8425 26C14.0568 26 15.0413 25.0238 15.0413 23.8198ZM27.8117 6.37283H18.7288H8.63169C8.46023 6.37283 8.28389 6.24023 8.23696 6.07695L7.47006 3.39691C6.92614 1.49375 5.12209 0.00242221 3.36391 0.00107654L0.93024 0C0.416441 0 0.000542974 0.412664 1.32687e-07 0.921059C-0.000271288 1.43053 0.415898 1.84292 0.928611 1.84346L3.36309 1.84508C4.28519 1.84508 5.36816 2.80565 5.68176 3.90022L6.46032 6.62434C6.4606 6.62488 9.74422 18.1124 9.74422 18.1124C9.97997 18.9364 10.8793 19.6105 11.7425 19.6105H23.8848C24.7486 19.6105 25.6547 18.9388 25.8988 18.1168L28.9388 7.86712C29.1827 7.04586 28.6751 6.37283 27.8117 6.37283ZM24.9843 23.8198C24.9843 22.6157 23.9998 21.6395 22.7856 21.6395C21.5713 21.6395 20.5868 22.6157 20.5868 23.8198C20.5868 25.0238 21.5713 26 22.7856 26C23.9998 26 24.9843 25.0238 24.9843 23.8198Z" fill="#141414"/>
</svg>
