<svg width="15" height="18" viewBox="0 0 15 18" fill="none" xmlns="http://www.w3.org/2000/svg">
<path fill-rule="evenodd" clip-rule="evenodd" d="M12.11 16.2L12.6 5.03C12.61 4.83 12.71 4.64 12.86 4.51C13.01 4.38 13.21 4.31 13.43 4.31C13.65 4.32 13.85 4.42 13.98 4.56C14.12 4.7 14.2 4.89 14.19 5.09L13.7 16.26C13.68 16.75 13.46 17.18 13.11 17.49C12.77 17.81 12.3 18 11.79 18H3.21C2.7 18 2.23 17.81 1.89 17.49C1.54 17.18 1.32 16.75 1.3 16.26L0.81 5.09C0.8 4.89 0.88 4.7 1.01 4.56C1.15 4.42 1.35 4.32 1.57 4.31C1.79 4.31 1.99 4.38 2.14 4.51C2.29 4.64 2.39 4.83 2.4 5.04L2.89 16.2C2.89 16.28 2.93 16.35 2.99 16.4C3.05 16.46 3.13 16.49 3.21 16.49H11.79C11.87 16.49 11.95 16.46 12.01 16.41C12.07 16.35 12.11 16.28 12.11 16.2ZM5.86 1.81L5.76 2.16H9.24L9.14 1.81C9.11 1.74 9.05 1.66 8.97 1.61C8.88 1.55 8.79 1.51 8.71 1.51H6.29C6.21 1.51 6.12 1.55 6.03 1.61C5.95 1.66 5.89 1.74 5.86 1.81ZM10.67 1.4L10.9 2.16H14.2C14.42 2.16 14.62 2.24 14.77 2.38C14.91 2.51 15 2.7 15 2.91C15 3.12 14.91 3.31 14.77 3.44C14.62 3.58 14.42 3.66 14.2 3.66H0.8C0.58 3.66 0.38 3.58 0.23 3.44C0.09 3.31 0 3.12 0 2.91C0 2.7 0.09 2.51 0.23 2.38C0.38 2.24 0.58 2.16 0.8 2.16H4.1L4.33 1.4C4.45 1 4.72 0.65 5.07 0.4C5.42 0.15 5.85 0 6.29 0H8.71C9.14 0 9.58 0.15 9.93 0.4C10.28 0.65 10.55 1 10.67 1.4ZM9.52 14.69L9.79 6.06C9.79 5.89 9.87 5.74 9.99 5.63C10.12 5.52 10.29 5.45 10.47 5.46C10.65 5.46 10.82 5.54 10.93 5.65C11.05 5.77 11.12 5.93 11.11 6.1L10.84 14.73C10.84 14.9 10.76 15.05 10.64 15.16C10.51 15.27 10.34 15.34 10.16 15.34C9.98 15.33 9.81 15.25 9.7 15.14C9.58 15.02 9.51 14.86 9.52 14.69ZM4.16 14.73L3.89 6.1C3.88 5.93 3.95 5.77 4.07 5.65C4.18 5.54 4.35 5.46 4.53 5.46C4.72 5.45 4.88 5.52 5 5.63C5.13 5.74 5.21 5.89 5.21 6.06L5.48 14.69C5.49 14.86 5.42 15.02 5.3 15.14C5.18 15.25 5.02 15.33 4.84 15.34C4.65 15.34 4.49 15.27 4.36 15.16C4.24 15.05 4.16 14.9 4.16 14.73ZM6.84 14.71V6.08C6.84 5.91 6.91 5.75 7.03 5.64C7.15 5.53 7.32 5.45 7.5 5.45C7.68 5.45 7.85 5.53 7.97 5.64C8.09 5.75 8.16 5.91 8.16 6.08V14.71C8.16 14.88 8.09 15.04 7.97 15.15C7.85 15.27 7.68 15.34 7.5 15.34C7.32 15.34 7.15 15.27 7.03 15.15C6.91 15.04 6.84 14.88 6.84 14.71Z" fill="#A4A4A4"/>
</svg>
