<svg width="18" height="18" viewBox="0 0 18 18" fill="none" xmlns="http://www.w3.org/2000/svg">
<path fill-rule="evenodd" clip-rule="evenodd" d="M0.92 17.98L5.62 16.75C5.74 16.71 5.86 16.65 5.95 16.56L17.78 4.73C17.92 4.6 18 4.41 18 4.21C18 4.02 17.92 3.83 17.78 3.69L14.31 0.22C14.17 0.08 13.98 0 13.79 0C13.59 0 13.4 0.08 13.27 0.22L1.43 12.05C1.34 12.14 1.28 12.26 1.24 12.38L0.02 17.08C0.01 17.14 0 17.2 0 17.26C0 17.67 0.33 18 0.74 18C0.8 18 0.86 17.99 0.92 17.98ZM2.36 13.92L4.08 15.64L1.76 16.24L2.36 13.92ZM12.1 8.34L5.49 14.94L3.06 12.51L9.66 5.9L12.1 8.34ZM10.7 4.86L11.75 3.82L14.18 6.25L13.14 7.3L10.7 4.86ZM13.79 1.78L16.22 4.21L15.22 5.21L12.79 2.78L13.79 1.78Z" fill="#A4A4A4"/>
</svg>
