<svg width="22" height="22" viewBox="0 0 22 22" fill="none" xmlns="http://www.w3.org/2000/svg">
<path d="M11.0005 17.2868C11.7447 17.2868 12.348 16.6835 12.348 15.9393C12.348 15.1951 11.7447 14.5918 11.0005 14.5918C10.2563 14.5918 9.65295 15.1951 9.65295 15.9393C9.65295 16.6835 10.2563 17.2868 11.0005 17.2868Z" fill="#7C7C7C"/>
<path d="M10.9998 4.71484C8.89483 4.71484 7.18433 6.42692 7.18433 8.53106C7.18433 8.6552 7.28411 8.75499 7.40825 8.75499H9.2044C9.32775 8.75499 9.42833 8.6552 9.42833 8.53106C9.42833 7.66442 10.1331 6.95963 10.9998 6.95963C11.8672 6.95963 12.5712 7.66442 12.5712 8.53106C12.5712 9.15727 12.2035 9.55642 11.5529 10.207C10.8065 10.9534 9.87697 11.8829 9.87697 13.4693V13.7836C9.87697 13.9077 9.97754 14.0083 10.1009 14.0083H11.8978C12.0212 14.0083 12.1218 13.9085 12.1218 13.7836V13.4693C12.1218 12.8423 12.4903 12.4439 13.1408 11.7933C13.8873 11.0469 14.8152 10.1174 14.8152 8.53106C14.8144 6.42692 13.1055 4.71484 10.9998 4.71484Z" fill="#7C7C7C"/>
<path d="M11 0C4.92486 0 0 4.92486 0 11C0 17.0751 4.92486 22 11 22C17.0751 22 22 17.0751 22 11C22 4.92486 17.0751 0 11 0ZM11 19.6429C6.23464 19.6429 2.35714 15.7646 2.35714 11C2.35714 6.23464 6.23464 2.35714 11 2.35714C15.7646 2.35714 19.6429 6.23464 19.6429 11C19.6429 15.7646 15.7646 19.6429 11 19.6429Z" fill="#7C7C7C"/>
</svg>
