<svg width="19" height="21" viewBox="0 0 19 21" fill="none" xmlns="http://www.w3.org/2000/svg">
<path d="M8.56794 0C9.72326 0 10.8306 0.230179 11.8445 0.646974L11.9092 0.676066C12.9375 1.10825 13.8585 1.72921 14.6254 2.49014L14.6966 2.56655C15.4507 3.33391 16.0608 4.24343 16.4818 5.25046C16.9035 6.25577 17.1356 7.35434 17.1356 8.50081C17.1356 9.64677 16.9035 10.7459 16.4836 11.7519L16.454 11.8169C16.1189 12.5997 15.6689 13.3231 15.1255 13.9649L18.6955 18.0405C19.1468 18.5581 19.09 19.3415 18.5682 19.7893L17.5106 20.6979C16.9889 21.1457 16.1992 21.0891 15.7479 20.5716L11.9966 16.2891C11.6236 16.4501 11.2347 16.5863 10.8321 16.696C10.0985 16.8947 9.33865 17.0017 8.56794 17.0017C7.41285 17.0017 6.30498 16.7715 5.29105 16.3547L5.22642 16.3256C4.19784 15.8934 3.27661 15.2724 2.50966 14.5115C1.72656 13.7342 1.09069 12.7974 0.653811 11.7512C0.232069 10.7459 0 9.64677 0 8.50081C0 7.35434 0.232069 6.25582 0.652042 5.24976L0.681326 5.18547C1.11694 4.16504 1.74273 3.25105 2.50966 2.49014C3.29303 1.71308 4.23725 1.08219 5.29181 0.648761C6.30498 0.230229 7.41285 0 8.56794 0ZM11.8036 5.17281C11.3875 4.77337 10.8955 4.45035 10.3533 4.22757C9.80964 4.00404 9.20659 3.88045 8.56794 3.88045C7.92926 3.88045 7.32573 4.00429 6.78226 4.22757C6.22089 4.45805 5.70875 4.80288 5.27465 5.23358C4.84078 5.66405 4.49279 6.17244 4.26047 6.72968C4.03548 7.2688 3.91097 7.86692 3.91097 8.50081C3.91097 9.13471 4.03548 9.73288 4.26047 10.272C4.49279 10.8292 4.84078 11.3376 5.27465 11.7681C5.70875 12.1987 6.22089 12.5436 6.78226 12.7741C7.32573 12.9974 7.92926 13.1212 8.56794 13.1212C9.2033 13.1212 9.80484 12.9976 10.3483 12.7741L10.4059 12.7523C10.9468 12.522 11.4405 12.1853 11.8609 11.7681C12.2948 11.3376 12.6428 10.8292 12.8751 10.272C13.1001 9.73288 13.2246 9.13471 13.2246 8.50081C13.2246 7.86692 13.1001 7.2688 12.8751 6.72968C12.6428 6.17244 12.2948 5.66405 11.8609 5.23358L11.8036 5.17281Z" fill="white"/>
</svg>
