<svg width="16" height="19" viewBox="0 0 16 19" fill="none" xmlns="http://www.w3.org/2000/svg">
<path d="M13.4286 7.5H12.2857C11.8123 7.5 11.4286 7.87309 11.4286 8.33335C11.4286 8.7936 11.8123 9.1667 12.2857 9.1667H13.4286C13.902 9.1667 14.2857 9.53979 14.2857 10V16.5001C14.2857 16.9604 13.902 17.3334 13.4286 17.3334H2.57143C2.09802 17.3334 1.71427 16.9604 1.71427 16.5001V10C1.71427 9.53974 2.09802 9.16665 2.57143 9.16665H3.71428C4.18768 9.16665 4.57144 8.79355 4.57144 8.3333C4.57144 7.87304 4.18768 7.49995 3.71428 7.49995H2.57143C1.15127 7.49995 0 8.61924 0 9.99995V16.5C0 17.8807 1.15127 19 2.57143 19H13.4286C14.8487 19 16 17.8807 16 16.5V10C16 8.61928 14.8487 7.5 13.4286 7.5Z" fill="#A4A4A4"/>
<path d="M12.8923 4.41066L8.6066 0.244007C8.27191 -0.0813355 7.7293 -0.0813355 7.39461 0.244007L3.10887 4.41066C2.78 4.74172 2.78945 5.26925 3.12996 5.58898C3.46214 5.9009 3.98873 5.9009 4.3209 5.58898L7.1435 2.84479V13.3332C7.1435 13.7935 7.52725 14.1666 8.00066 14.1666C8.47406 14.1666 8.85782 13.7935 8.85782 13.3332V2.84484L11.6804 5.58903C12.0209 5.90876 12.5635 5.89958 12.8924 5.56852C13.2131 5.24557 13.2131 4.73361 12.8923 4.41066Z" fill="#A4A4A4"/>
</svg>
