<svg width="24" height="24" viewBox="0 0 24 24" fill="none" xmlns="http://www.w3.org/2000/svg">
<path d="M0.703127 24H13.4532C13.8415 24 14.1563 23.6852 14.1563 23.2969V22.5469C14.1563 21.7701 13.5268 21.1406 12.75 21.1406V20.3C12.75 19.1869 11.8444 18.2813 10.7313 18.2813H3.425C2.3119 18.2813 1.40625 19.1869 1.40625 20.3V21.1406C0.629518 21.1406 0 21.7701 0 22.5469V23.2969C0 23.6851 0.314942 24 0.703127 24Z" fill="#525252"/>
<path d="M8.80007 15.4849C9.26736 16.105 10.1492 16.229 10.7694 15.7615C11.3897 15.2943 11.5135 14.4124 11.0462 13.7921L6.81465 8.17677C6.34718 7.55641 5.46553 7.43263 4.84535 7.89991C4.22499 8.36738 4.10102 9.24903 4.56849 9.86939L8.80007 15.4849Z" fill="#525252"/>
<path d="M18.9077 7.86805C19.3752 8.48823 20.2568 8.61219 20.8772 8.14472C21.4974 7.67744 21.6213 6.79579 21.1539 6.17543L16.9223 0.560135C16.455 -0.0602255 15.5732 -0.184188 14.953 0.28328C14.3328 0.750748 14.2088 1.6324 14.6763 2.25276L18.9077 7.86805Z" fill="#525252"/>
<path d="M15.8233 11.9531C16.8626 11.17 17.6428 10.1975 18.1308 9.17359L13.2071 2.63966C12.0883 2.82661 10.9386 3.30836 9.89907 4.09169C8.85976 4.87483 8.07955 5.8473 7.59157 6.87104L12.5153 13.4053C13.6341 13.2184 14.7838 12.7365 15.8233 11.9531Z" fill="#525252"/>
<path d="M17.7219 12.1362C17.3945 12.4699 17.0497 12.7897 16.6696 13.0763C16.2893 13.3627 15.8866 13.606 15.4759 13.8289L16.3927 15.0456L18.6389 13.3532L17.7219 12.1362Z" fill="#525252"/>
<path d="M19.4852 14.4761L17.2391 16.1686L21.4706 21.7841C21.9381 22.4044 22.8198 22.5282 23.4399 22.0609C24.0603 21.5934 24.1841 20.7118 23.7168 20.0914L19.4852 14.4761Z" fill="#525252"/>
</svg>
