<svg width="46" height="71" viewBox="0 0 46 71" fill="none" xmlns="http://www.w3.org/2000/svg">
<path d="M0 51.6777H6.50169V58.6135L13.5914 51.6777H21.4249L12.1982 60.7185L22.2607 70.5635H14.0253L8.08105 64.7433L6.50169 66.2911V70.5635H0V51.6777Z" fill="#101010"/>
<path d="M37.3322 64.6196V70.5635H23.6782V51.6777H30.1804V64.6196H37.3322Z" fill="#101010"/>
<path d="M39.4946 51.6777H45.9963V70.5635H39.4946V51.6777Z" fill="#101010"/>
<path d="M30.8286 0.476562V46.4735H34.9738C34.5657 45.4835 34.3427 44.4071 34.3427 43.2684C34.3427 38.6278 38.1048 34.8661 42.7454 34.8661C43.9085 34.8661 45.0101 35.101 46.0002 35.5216V0.476562H30.8286ZM16.1268 0.476562H0.00244141V46.4735H15.9788V14.6953H1.90825L16.1268 0.476562Z" fill="#D23D20"/>
<path d="M45.9457 43.2704C45.9457 45.038 44.5132 46.4711 42.7456 46.4711C40.9779 46.4711 39.5449 45.038 39.5449 43.2704C39.5449 41.5032 40.9779 40.0703 42.7456 40.0703C44.5132 40.0703 45.9457 41.5032 45.9457 43.2704Z" fill="#D23D20"/>
</svg>
