<svg width="29" height="27" viewBox="0 0 29 27" fill="none" xmlns="http://www.w3.org/2000/svg">
<path fill-rule="evenodd" fill="#D23D20" clip-rule="evenodd" d="M12.0899 0.588545C5.22192 1.49846 0 6.25181 0 11.9823C0 14.703 1.1804 17.204 3.15517 19.178C3.38732 19.4101 3.47647 19.7551 3.39111 20.0759C2.77757 22.3825 1.44959 24.4673 0.649645 25.5808L0.649503 25.5808C0.544295 25.7272 0.447875 25.8575 0.363864 25.9686C0.219879 26.1587 0.355918 26.4346 0.590679 26.4286C2.19526 26.3876 6.69672 26.0194 9.42229 23.2729C9.56232 23.1317 9.74081 23.0445 9.92955 23.0179L9.96311 23.0146C10.0627 23.004 10.1648 23.0103 10.2653 23.0348C10.8717 23.1822 11.4577 23.292 12.095 23.3754L12.0956 23.3754C12.8779 23.4796 13.6805 23.5358 14.5 23.5358C22.5082 23.5358 29 18.3632 29 11.9823C29 5.60145 22.5082 0.428711 14.5 0.428711H14.5C13.6787 0.428711 12.8738 0.483994 12.0899 0.588459L12.0905 0.588545H12.0899ZM23.7728 11.9823C23.7728 10.8096 22.8452 9.85889 21.7011 9.85889C20.5569 9.85889 19.6294 10.8096 19.6294 11.9823C19.6294 13.155 20.5569 14.1057 21.7011 14.1057C22.8452 14.1057 23.7728 13.155 23.7728 11.9823ZM16.5745 11.9823C16.5745 10.8096 15.647 9.85889 14.5028 9.85889C13.3586 9.85889 12.4311 10.8096 12.4311 11.9823C12.4311 13.155 13.3586 14.1057 14.5028 14.1057C15.647 14.1057 16.5745 13.155 16.5745 11.9823ZM9.37636 11.9823C9.37636 10.8096 8.44882 9.85889 7.30464 9.85889C6.16048 9.85889 5.23289 10.8096 5.23289 11.9823C5.23289 13.155 6.16048 14.1057 7.30464 14.1057C8.44882 14.1057 9.37636 13.155 9.37636 11.9823Z"/>
</svg>
