<svg width="28" height="27" viewBox="0 0 28 27" fill="none" xmlns="http://www.w3.org/2000/svg">
<path d="M17.75 7.42871C17.06 7.42871 16.5 6.93093 16.5 6.3176V2.65093H11.5V6.3176C11.5 6.93093 10.94 7.42871 10.25 7.42871C9.56 7.42871 9 6.93093 9 6.3176V2.65093C9 1.42538 10.1212 0.428711 11.5 0.428711H16.5C17.8787 0.428711 19 1.42538 19 2.65093V6.3176C19 6.93093 18.44 7.42871 17.75 7.42871Z" fill="#141414"/>
<path d="M21 15.2522V16.3346C21 16.8169 20.6033 17.2169 20.125 17.2169C19.6467 17.2169 19.25 16.8169 19.25 16.3346V15.2522H8.75V16.3346C8.75 16.8169 8.35333 17.2169 7.875 17.2169C7.39667 17.2169 7 16.8169 7 16.3346V15.2522H0V23.1934C0 24.9817 1.435 26.4287 3.20833 26.4287H24.7917C26.565 26.4287 28 24.9817 28 23.1934V15.2522H21ZM24.7917 5.42871H3.20833C1.435 5.42871 0 6.87577 0 8.66401V13.4875H7V12.0169C7 11.5346 7.39667 11.1346 7.875 11.1346C8.35333 11.1346 8.75 11.5346 8.75 12.0169V13.4875H19.25V12.0169C19.25 11.5346 19.6467 11.1346 20.125 11.1346C20.6033 11.1346 21 11.5346 21 12.0169V13.4875H28V8.66401C28 6.87577 26.565 5.42871 24.7917 5.42871Z" fill="#141414"/>
</svg>
