<svg width="28" height="29" viewBox="0 0 28 29" fill="#D23D20" xmlns="http://www.w3.org/2000/svg">
<path fill-rule="evenodd" clip-rule="evenodd" d="M25.4449 13.4945L27.2257 14.0653C27.5025 14.1485 27.7122 14.3303 27.8536 14.5658C27.9841 14.7983 28.0357 15.0819 27.9741 15.3633L27.0888 19.4118C27.0272 19.6933 26.8621 19.9294 26.6463 20.0864C26.4307 20.2432 26.153 20.3188 25.8668 20.2789L24.0103 20.0542C23.8261 20.377 23.6336 20.6865 23.4171 21.0023C23.2054 21.2964 22.983 21.5882 22.7408 21.8641L23.6024 23.5273C23.7391 23.7839 23.758 24.0603 23.6905 24.3178C23.6208 24.5859 23.4555 24.822 23.2181 24.9745L19.7328 27.2181C19.4845 27.3677 19.2009 27.4194 18.9389 27.3732C18.6767 27.3271 18.4252 27.1816 18.2486 26.95L17.1055 25.4864C16.7451 25.5778 16.3871 25.6581 16.0318 25.7278C15.6656 25.7952 15.3041 25.841 14.9337 25.8736L14.363 27.6543C14.2798 27.9312 14.098 28.1408 13.8625 28.2824C13.6299 28.4129 13.3465 28.4644 13.065 28.4028L9.01642 27.5174C8.73493 27.4558 8.4989 27.2907 8.34202 27.075C8.18514 26.8593 8.10949 26.5817 8.14938 26.2954L8.37405 24.439C8.05115 24.2548 7.74169 24.0623 7.43707 23.8482C7.1323 23.6341 6.85113 23.414 6.56463 23.1696L4.90144 24.0311C4.64483 24.1679 4.36842 24.1868 4.11085 24.1193C3.84279 24.0496 3.60669 23.8843 3.45418 23.6468L1.21061 20.1616C1.06096 19.9133 1.0093 19.6297 1.05548 19.3677C1.10165 19.1055 1.24709 18.8539 1.47867 18.6774L2.9423 17.5343C2.85091 17.1739 2.75952 16.8135 2.70086 16.4606C2.63347 16.0944 2.59016 15.7218 2.55512 15.3626L0.774387 14.7918C0.497586 14.7086 0.287861 14.5268 0.1464 14.2914C0.0158282 14.0587 -0.035671 13.7752 0.0258398 13.4938L0.911236 9.44516C0.972829 9.16375 1.13797 8.92771 1.35365 8.77075C1.56934 8.61395 1.84694 8.53823 2.13328 8.5782L3.98966 8.80287C4.17387 8.4799 4.36635 8.17049 4.58045 7.8658C4.79455 7.5611 5.017 7.2693 5.25907 6.99346L4.39759 5.33026C4.26082 5.07356 4.24191 4.79716 4.30938 4.53967C4.37916 4.27153 4.54438 4.03551 4.78184 3.883L8.27765 1.64174C8.51495 1.48963 8.79612 1.44909 9.0583 1.49479C9.32294 1.52992 9.57439 1.67584 9.74231 1.89391L10.894 3.37104C11.2544 3.27965 11.6149 3.18826 11.9676 3.12953C12.3449 3.0646 12.7065 3.01883 13.0657 2.98379L13.6364 1.20306C13.7173 0.937307 13.9016 0.716515 14.137 0.575055C14.3696 0.444562 14.653 0.393001 14.9345 0.45459L18.983 1.3399C19.2645 1.40149 19.5007 1.5667 19.6575 1.78239C19.812 2.00912 19.8901 2.27569 19.8502 2.56195L19.6255 4.41839C19.9483 4.60261 20.2578 4.79509 20.5625 5.00919C20.8672 5.22321 21.159 5.44566 21.4349 5.68781L23.098 4.82626C23.3547 4.68949 23.631 4.67063 23.8886 4.73803C24.1567 4.8078 24.3929 4.97313 24.5454 5.21051L26.7889 8.69582C26.9386 8.94409 26.9903 9.22771 26.9441 9.48973C26.8978 9.75191 26.7524 10.0035 26.5209 10.18L25.0572 11.3231C25.1486 11.6835 25.2289 12.0415 25.2987 12.3968C25.366 12.763 25.4092 13.1356 25.4445 13.4949L25.4449 13.4945ZM18.2076 11.7416C17.525 10.6619 16.42 9.85316 15.0776 9.55959C13.7352 9.26602 12.3935 9.53971 11.3226 10.2359C10.243 10.9184 9.4342 12.0234 9.14063 13.3658C8.84706 14.7082 9.12076 16.0499 9.81693 17.1209C10.4994 18.2004 11.6044 19.0093 12.9468 19.3028C14.2892 19.5964 15.6309 19.3226 16.7019 18.6265C17.7814 17.944 18.5903 16.839 18.8839 15.4965C19.1775 14.1542 18.9037 12.8125 18.2076 11.7416Z"/>
</svg>
