<svg width="28" height="29" viewBox="0 0 28 29" fill="none" xmlns="http://www.w3.org/2000/svg">
<path d="M0 4.42871C0 2.21957 1.79086 0.428711 4 0.428711H8C10.2091 0.428711 12 2.21957 12 4.42871V8.42871C12 10.6378 10.2091 12.4287 8 12.4287H4C1.79086 12.4287 0 10.6378 0 8.42871V4.42871Z" fill="#141414"/>
<path d="M0 20.4287C0 18.2196 1.79086 16.4287 4 16.4287H8C10.2091 16.4287 12 18.2196 12 20.4287V24.4287C12 26.6378 10.2091 28.4287 8 28.4287H4C1.79086 28.4287 0 26.6378 0 24.4287V20.4287Z" fill="#141414"/>
<path d="M16 4.42871C16 2.21957 17.7909 0.428711 20 0.428711H24C26.2091 0.428711 28 2.21957 28 4.42871V8.42871C28 10.6378 26.2091 12.4287 24 12.4287H20C17.7909 12.4287 16 10.6378 16 8.42871V4.42871Z" fill="#141414"/>
<path d="M16 20.4287C16 18.2196 17.7909 16.4287 20 16.4287H24C26.2091 16.4287 28 18.2196 28 20.4287V24.4287C28 26.6378 26.2091 28.4287 24 28.4287H20C17.7909 28.4287 16 26.6378 16 24.4287V20.4287Z" fill="#141414"/>
</svg>
