<svg width="28" height="27" viewBox="0 0 28 27" fill="none" xmlns="http://www.w3.org/2000/svg">
<path d="M15.4462 1.32355L18.7873 8.22718L26.5902 9.17924C27.4694 9.28321 28.0952 10.0599 27.9881 10.9135C27.9363 11.3253 27.7235 11.6793 27.419 11.924L21.7553 17.0811L23.2337 24.5814C23.3996 25.4247 22.8298 26.2395 21.9611 26.4006C21.5803 26.4713 21.2044 26.4047 20.8894 26.2361L13.9986 22.5536L7.10777 26.2361C6.33217 26.65 5.35776 26.3748 4.93216 25.6218C4.74526 25.2909 4.69486 24.9232 4.76346 24.5794L6.24187 17.0811L0.503964 11.8574C-0.140036 11.2689 -0.170836 10.2849 0.434664 9.66036C0.702064 9.38446 1.04856 9.22477 1.40696 9.18196V9.17924L9.20917 8.22718L12.5503 1.32355C12.9241 0.547496 13.8761 0.212474 14.6755 0.574679C15.029 0.735054 15.2936 1.00552 15.4462 1.32355Z" fill="#141414"/>
</svg>
