<svg width="64" height="66" viewBox="0 0 64 66" fill="none" xmlns="http://www.w3.org/2000/svg">
<path fill-rule="evenodd" clip-rule="evenodd" d="M14.4395 16.6468V4.26956V0.154297H53.6341V4.26956V16.6468H14.4395Z" fill="#E6E6E6"/>
<path fill-rule="evenodd" clip-rule="evenodd" d="M57.7605 26.627C61.1746 26.627 63.9488 29.4003 63.9488 32.8156C63.9488 36.2297 61.1746 39.0042 57.7605 39.0042H53.6347V26.627H57.7605ZM14.44 26.627V39.0042H6.18848C9.6026 39.0042 12.3771 36.2297 12.3771 32.8156C12.3771 29.4003 9.6026 26.627 6.18848 26.627H14.44Z" fill="#D23D20"/>
<path fill-rule="evenodd" clip-rule="evenodd" d="M53.6349 59.6465L47.4463 65.8351V59.6465H53.6349Z" fill="#DEDEDE"/>
<path fill-rule="evenodd" clip-rule="evenodd" d="M47.4455 65.8354V65.8456H14.4395V41.0707V28.6934V24.5781H53.6341V28.6934V41.0707V59.6468H47.4455V65.8354ZM47.4145 51.3851V51.3746L38.1317 36.9449L32.438 45.7946L29.3644 41.0707L22.66 51.3851H28.8487H47.4145ZM26.796 34.8613C26.796 33.7176 25.8678 32.7985 24.7331 32.7985C23.5883 32.7985 22.6706 33.7176 22.6706 34.8613C22.6706 35.9971 23.5883 36.9242 24.7331 36.9242C25.8678 36.9242 26.796 35.996 26.796 34.8613Z" fill="#E6E6E6"/>
<path fill-rule="evenodd" clip-rule="evenodd" d="M6.18833 26.627C9.60245 26.627 12.377 29.4003 12.377 32.8156C12.377 36.2297 9.60245 39.0042 6.18833 39.0042C2.77448 39.0042 0 36.2297 0 32.8156C0 29.4015 2.77448 26.627 6.18833 26.627ZM8.25123 32.8156C8.25123 31.6801 7.32296 30.7527 6.18833 30.7527L6.13529 30.7536L6.08283 30.7555L6.03044 30.7589L5.97853 30.7635L5.92662 30.7694L5.87536 30.7765L5.82457 30.7853C5.79083 30.7913 5.75738 30.7981 5.72421 30.806C5.64142 30.825 5.56006 30.8494 5.48095 30.8786C5.41801 30.9016 5.35621 30.9279 5.29611 30.9569C4.62019 31.2835 4.14667 31.9687 4.12654 32.7626L4.12574 32.8156C4.12574 33.9502 5.05397 34.8785 6.18833 34.8785C7.32296 34.8785 8.25123 33.9502 8.25123 32.8156Z" fill="#E6E6E6"/>
<path fill-rule="evenodd" clip-rule="evenodd" d="M6.18857 12.1895C9.60241 12.1895 12.377 14.9535 12.377 18.3778C12.377 21.7919 9.60241 24.5664 6.18857 24.5664C2.77444 24.5664 0 21.7919 0 18.3778C0 14.9535 2.77444 12.1895 6.18857 12.1895ZM8.25148 18.3778C8.25148 17.2423 7.32292 16.3152 6.18857 16.3152C5.05393 16.3152 4.12574 17.2423 4.12574 18.3778C4.12574 19.5218 5.05393 20.4407 6.18857 20.4407C7.32292 20.4407 8.25148 19.5229 8.25148 18.3778Z" fill="#E6E6E6"/>
<path fill-rule="evenodd" clip-rule="evenodd" d="M57.7602 12.1895C61.1744 12.1895 63.9488 14.9535 63.9488 18.3778C63.9488 21.7919 61.1744 24.5664 57.7602 24.5664H6.18848C9.60232 24.5664 12.3769 21.7919 12.3769 18.3778C12.3769 14.9535 9.60232 12.1895 6.18848 12.1895H57.7602Z" fill="#D23D20"/>
<path fill-rule="evenodd" clip-rule="evenodd" d="M29.5056 50.3516L31.882 46.6582C32.0513 46.7697 32.2463 46.8346 32.4462 46.8346C32.6393 46.8346 32.8341 46.781 33.0073 46.6685C33.485 46.3571 33.6211 45.7184 33.3106 45.2409L30.2339 40.5068C30.2319 40.5036 30.2288 40.5025 30.2265 40.4994C30.1905 40.4438 30.1327 40.4035 30.0854 40.3551C30.0358 40.3055 29.9935 40.2479 29.9368 40.2096C29.9337 40.2076 29.9328 40.2045 29.9297 40.2025C29.8863 40.1745 29.8367 40.1682 29.7914 40.1478C29.7171 40.1138 29.645 40.0735 29.5654 40.0579C29.4996 40.0446 29.4336 40.054 29.3675 40.054C29.3015 40.054 29.2354 40.0446 29.1693 40.0579C29.0911 40.0735 29.0187 40.1138 28.9456 40.1467C28.8991 40.1682 28.8487 40.1736 28.8053 40.2023C28.8022 40.2045 28.8013 40.2076 28.7982 40.2096C28.7415 40.2468 28.7013 40.3046 28.6516 40.3531C28.6032 40.4024 28.5453 40.4427 28.5084 40.4994C28.5062 40.5025 28.503 40.5036 28.501 40.5068L21.7967 50.8211C21.7791 50.8467 21.7782 50.8767 21.7649 50.9034C21.7318 50.9643 21.7091 51.0261 21.6895 51.0933C21.6688 51.1614 21.6543 51.2286 21.6481 51.2975C21.6461 51.3275 21.6309 51.3533 21.6309 51.3831C21.6309 51.4194 21.6481 51.4491 21.6512 51.4851C21.6586 51.5555 21.6719 51.6224 21.6926 51.6904C21.7131 51.7545 21.738 51.8112 21.7689 51.8699C21.7987 51.9266 21.8339 51.9773 21.8761 52.0278C21.9215 52.0836 21.9711 52.131 22.0266 52.1764C22.0547 52.1979 22.0711 52.2291 22.1009 52.2487C22.1341 52.2702 22.172 52.2796 22.2083 52.2971C22.2412 52.3147 22.2722 52.33 22.3073 52.3436C22.4227 52.3859 22.5435 52.4148 22.6632 52.4148L22.6643 52.4145H30.258C30.8285 52.4145 31.2895 51.9535 31.2895 51.3831C31.2895 50.8126 30.8274 50.3516 30.258 50.3516H29.5056Z" fill="#141414"/>
<path fill-rule="evenodd" clip-rule="evenodd" d="M48.3017 51.8844C48.3388 51.8195 48.3677 51.7526 48.3904 51.6792C48.41 51.6162 48.4214 51.5544 48.4288 51.4884C48.4327 51.4524 48.4503 51.4215 48.4503 51.3832C48.4503 51.3534 48.435 51.3276 48.4327 51.2987C48.4276 51.2255 48.4111 51.1552 48.3896 51.0832C48.3709 51.0231 48.3513 50.9687 48.3235 50.9128C48.3068 50.8831 48.3049 50.8479 48.2864 50.8181L39.0035 36.3933C39.0015 36.3893 38.9972 36.3882 38.9941 36.3839C38.9558 36.3252 38.896 36.281 38.8447 36.2314C38.7982 36.1849 38.7579 36.1305 38.7032 36.0942C38.6989 36.0911 38.6969 36.0871 38.693 36.084C38.6476 36.0551 38.5949 36.0488 38.5475 36.0273C38.4764 35.9952 38.408 35.9581 38.3329 35.9436C38.2649 35.9292 38.1969 35.9385 38.1288 35.9385C38.0647 35.9385 38.0018 35.9303 37.9377 35.9425C37.8575 35.9592 37.7852 35.9972 37.7098 36.0312C37.6656 36.0519 37.6182 36.0559 37.5756 36.084C37.5717 36.086 37.5697 36.0911 37.5654 36.0933C37.5099 36.1305 37.4685 36.1872 37.4189 36.2357C37.3695 36.285 37.3117 36.3272 37.2745 36.3851C37.2726 36.3882 37.2674 36.3902 37.2652 36.3944L27.9823 50.819C27.9627 50.849 27.9607 50.8839 27.9451 50.9151C27.9173 50.9695 27.8966 51.0243 27.8793 51.0841C27.8575 51.1564 27.841 51.2264 27.8359 51.2995C27.8339 51.3285 27.8184 51.3543 27.8184 51.3843C27.8184 51.4215 27.836 51.4524 27.8399 51.4895C27.8473 51.5544 27.8598 51.6174 27.8782 51.6814C27.8998 51.7535 27.9298 51.8207 27.9658 51.8856C27.9916 51.9298 28.0194 51.9701 28.0505 52.0103C28.1072 52.0815 28.1691 52.1413 28.2414 52.196C28.2618 52.2105 28.2711 52.232 28.2927 52.2456C28.3145 52.2598 28.3392 52.2652 28.3619 52.2766C28.4146 52.3055 28.4662 52.3313 28.5229 52.3508C28.5918 52.3735 28.6633 52.3849 28.7342 52.3931C28.7744 52.397 28.8084 52.4158 28.8498 52.4158H47.4157C47.4571 52.4158 47.4911 52.3962 47.5314 52.3931C47.6026 52.3849 47.6737 52.3735 47.7429 52.3508C47.8004 52.3301 47.8512 52.3055 47.9037 52.2766C47.9263 52.2641 47.9513 52.259 47.9728 52.2456C47.9944 52.232 48.0037 52.2105 48.0244 52.196C48.0956 52.1413 48.1585 52.0826 48.2152 52.0103C48.2492 51.9692 48.277 51.929 48.3017 51.8844Z" fill="#141414"/>
<path fill-rule="evenodd" clip-rule="evenodd" d="M24.7339 32.2832C26.1523 32.2832 27.3127 33.4312 27.3127 34.8618C27.3127 36.2808 26.1523 37.4404 24.7339 37.4404C23.3024 37.4404 22.1553 36.2811 22.1553 34.8618C22.1553 33.4312 23.3035 32.2832 24.7339 32.2832Z" fill="#D23D20"/>
</svg>
