<svg width="60" height="66" viewBox="0 0 60 66" fill="none" xmlns="http://www.w3.org/2000/svg">
<path fill-rule="evenodd" clip-rule="evenodd" d="M11.0269 65.5631C10.651 65.1872 10.651 64.5779 11.0269 64.2019C12.4363 62.7926 12.4363 60.4997 11.0269 59.0904C8.86734 56.9303 8.86734 53.4163 11.0269 51.2562C12.4363 49.8471 12.4363 47.554 11.0269 46.1444C10.651 45.7687 10.651 45.1594 11.0269 44.7835C11.4028 44.4081 12.0124 44.4081 12.3878 44.7835C14.5479 46.9436 14.5479 50.4575 12.3878 52.6174C10.9784 54.0267 10.9784 56.3198 12.3878 57.7292C14.5479 59.8891 14.5479 63.4035 12.3878 65.5631C12.0124 65.9385 11.4028 65.9385 11.0269 65.5631Z" fill="#E6E6E6"/>
<path fill-rule="evenodd" clip-rule="evenodd" d="M22.2318 31.1897C18.6104 27.3092 16.0758 20.8767 16.3119 15.2231C16.329 14.8026 16.0712 14.4196 15.6749 14.2772C14.4163 13.8262 13.0818 13.5977 11.7076 13.5977C5.19916 13.5977 0 18.6936 0 26.3061C0 33.8159 5.40414 42.7952 11.7076 42.7952C16.7143 42.7952 20.783 37.2737 22.4444 32.1429C22.5516 31.8103 22.4705 31.4454 22.2318 31.1897Z" fill="#E6E6E6"/>
<path fill-rule="evenodd" clip-rule="evenodd" d="M10.553 45.848C9.96635 45.848 9.53738 45.2957 9.68283 44.727L10.2292 42.5944C10.4021 41.9187 11.01 41.4473 11.7072 41.4473C12.4043 41.4473 13.0122 41.9187 13.1851 42.5944L13.7315 44.727C13.8766 45.2955 13.4482 45.848 12.8613 45.848H10.553Z" fill="#E6E6E6"/>
<path fill-rule="evenodd" clip-rule="evenodd" d="M47.3552 65.8457C46.8242 65.8457 46.393 65.4145 46.393 64.8834C46.393 64.0198 46.0567 63.2078 45.4457 62.5969C43.6641 60.8147 43.471 58.0787 44.7968 56.0935C44.9918 55.0981 45.4769 54.182 46.2112 53.4477C47.3022 52.3567 47.3022 50.5816 46.2112 49.4904C44.3652 47.6447 44.3652 44.657 46.2112 42.8113C46.5869 42.4353 47.1965 42.4353 47.5718 42.8113C47.9478 43.1869 47.9478 43.7959 47.5718 44.1719C46.4783 45.2654 46.4783 47.0357 47.5718 48.1292C49.3676 49.925 49.4011 52.7713 47.7598 54.6096C48.918 54.848 49.7912 55.8749 49.7912 57.1028C49.7912 59.1121 47.5582 60.3284 45.873 59.2454C45.941 59.9978 46.2662 60.6953 46.8072 61.2363C47.7808 62.2104 48.3178 63.5055 48.3178 64.8834C48.3178 65.4145 47.8865 65.8457 47.3555 65.8457H47.3552ZM46.6252 57.0657C46.6212 57.5244 47.0039 57.7884 47.3793 57.7099C47.6189 57.6597 47.8103 57.4626 47.8556 57.2228C47.9356 56.7966 47.5769 56.4272 47.1539 56.489C46.9067 56.5245 46.6277 56.7507 46.6252 57.0657Z" fill="#E6E6E6"/>
<path fill-rule="evenodd" clip-rule="evenodd" d="M46.8635 8.48438C44.9004 8.48438 43.0399 8.90171 41.3329 9.72562C40.8999 9.93429 40.6879 10.4304 40.8353 10.8875C41.3451 12.4687 41.6036 14.1888 41.6036 16.0002C41.6036 20.9263 39.5286 26.5986 36.3166 30.4517C36.0784 30.7374 36.0265 31.1352 36.1833 31.4732C38.756 37.0123 42.848 40.4533 46.8629 40.4533C53.7484 40.4533 59.6626 30.6062 59.6626 22.3861C59.6626 14.0861 54.0078 8.48438 46.8635 8.48438Z" fill="#E6E6E6"/>
<path fill-rule="evenodd" clip-rule="evenodd" d="M45.5246 43.8748C44.9383 43.8748 44.5091 43.3225 44.6545 42.7541L45.2734 40.3393C45.4594 39.6127 46.1135 39.1055 46.8637 39.1055C47.6136 39.1055 48.2677 39.6127 48.4534 40.3393L49.072 42.7538C49.2177 43.322 48.7888 43.8748 48.2019 43.8748H45.5246Z" fill="#E6E6E6"/>
<path fill-rule="evenodd" clip-rule="evenodd" d="M28.7377 65.5634C28.3617 65.1875 28.3617 64.5782 28.7377 64.2023C30.0521 62.8876 30.0521 60.7606 28.7377 59.446C26.6842 57.3927 26.6757 54.0571 28.7116 51.9934C27.3167 51.844 26.2266 50.6597 26.2266 49.2263C26.2266 47.6916 27.4757 46.4427 29.0101 46.4427C29.6673 46.4427 30.2721 46.6718 30.749 47.0542C30.7368 46.0398 30.3359 45.088 29.6177 44.3693C28.5242 43.2763 27.9223 41.823 27.9223 40.2767C27.9223 39.7448 28.3532 39.3145 28.8845 39.3145C29.4156 39.3145 29.8468 39.7448 29.8468 40.2767C29.8468 41.3087 30.2486 42.2789 30.9783 43.0087C32.9817 45.012 33.1997 48.0967 31.6911 50.3308C31.4759 51.4592 30.9293 52.4975 30.0983 53.3279C28.7867 54.6398 28.7867 56.7738 30.0983 58.0848C32.16 60.1465 32.16 63.5017 30.0983 65.5634C29.7223 65.9388 29.1131 65.9388 28.7377 65.5634ZM29.0101 48.3675C28.4811 48.3675 28.0626 48.8486 28.1678 49.3964C28.235 49.7431 28.5211 50.0187 28.8704 50.074C29.4127 50.159 29.8698 49.7386 29.8689 49.2314C29.8689 49.2302 29.8689 49.2288 29.8689 49.228C29.8689 48.7528 29.4839 48.3675 29.0101 48.3675Z" fill="#141414"/>
<path fill-rule="evenodd" clip-rule="evenodd" d="M28.9496 0.154297C20.7398 0.154297 14.3711 6.61256 14.3711 16.0007C14.3711 25.4067 21.1401 36.638 28.9496 36.638C36.7733 36.638 43.5281 25.3869 43.5281 16.0007C43.5281 6.6188 37.166 0.154297 28.9496 0.154297Z" fill="#D23D20"/>
<path fill-rule="evenodd" clip-rule="evenodd" d="M27.3109 40.6623C26.724 40.6623 26.295 40.1094 26.4407 39.541L27.177 36.6672C27.3843 35.8572 28.1132 35.291 28.9496 35.291C29.786 35.291 30.5155 35.8566 30.7227 36.6672L31.459 39.541C31.6045 40.1094 31.1755 40.6623 30.5889 40.6623H27.3109Z" fill="#D23D20"/>
</svg>
