<svg width="67" height="66" viewBox="0 0 67 66" fill="none" xmlns="http://www.w3.org/2000/svg">
<path fill-rule="evenodd" clip-rule="evenodd" d="M32.802 55.682C31.3813 54.2908 30.4843 52.3668 30.4375 50.2371C30.8806 50.3967 31.2243 50.6544 31.6351 50.9617C32.4352 51.5628 33.4329 52.3104 35.3055 52.3104C37.179 52.3104 38.1756 51.5628 38.9765 50.9617C39.6737 50.4406 40.1764 50.0621 41.3002 50.0621C42.4241 50.0621 42.9268 50.4406 43.6228 50.9617C44.4237 51.5628 45.4206 52.3104 47.2941 52.3104C49.1676 52.3104 50.1641 51.5628 50.9654 50.9617C51.6614 50.4406 52.1644 50.0621 53.2877 50.0621C54.4115 50.0621 54.9145 50.4406 55.6117 50.9617C56.4126 51.5628 57.4094 52.3104 59.2824 52.3104C61.1553 52.3104 62.153 51.5628 62.9534 50.9617C63.3642 50.6544 63.7072 50.397 64.1501 50.2373C64.1033 52.3668 63.2066 54.2908 61.7858 55.682H32.802ZM30.7165 47.9768C31.091 46.6168 31.8225 45.4031 32.8032 44.4434H61.785C62.7654 45.4034 63.4969 46.6168 63.8711 47.9768C62.8505 48.2297 62.1782 48.7341 61.6055 49.1636C60.9092 49.685 60.4065 50.0621 59.2824 50.0621C58.1591 50.0621 57.6558 49.685 56.9595 49.1636C56.1586 48.5626 55.1614 47.815 53.2879 47.815C51.4156 47.815 50.4176 48.5626 49.6175 49.1636C48.9209 49.685 48.418 50.0621 47.2941 50.0621C46.1702 50.0621 45.6675 49.685 44.9704 49.1636C44.1706 48.5626 43.1726 47.815 41.3002 47.815C39.4265 47.815 38.4302 48.5626 37.629 49.1636C36.9321 49.685 36.4294 50.0621 35.3055 50.0621C34.1814 50.0621 33.679 49.685 32.9829 49.1636C32.4102 48.7341 31.7377 48.2295 30.7165 47.9768Z" fill="#E6E6E6"/>
<path fill-rule="evenodd" clip-rule="evenodd" d="M58.643 65.8444H36.1649C31.8273 65.8444 28.2227 62.3155 28.2227 57.9777C28.2227 57.357 28.7253 56.8535 29.3465 56.8535H65.4614C66.0828 56.8535 66.5855 57.357 66.5855 57.9777C66.5855 62.3155 62.9806 65.8447 58.643 65.8447V65.8444Z" fill="#E6E6E6"/>
<path fill-rule="evenodd" clip-rule="evenodd" d="M65.0446 43.1136H28.9295C28.3083 43.1136 27.8057 42.6106 27.8057 41.9895C27.8057 33.9336 36.4518 27.3789 46.9874 27.3789C57.5223 27.3789 66.1688 33.9336 66.1688 41.9895C66.1688 42.6106 65.6661 43.1136 65.0446 43.1136Z" fill="#E6E6E6"/>
<path fill-rule="evenodd" clip-rule="evenodd" d="M1.9082 43.3586V32.3848H23.2917V43.3586H1.9082Z" fill="#E6E6E6"/>
<path fill-rule="evenodd" clip-rule="evenodd" d="M1.9112 46.7266V49.0508C1.9112 50.9362 1.59621 52.795 0.974452 54.5755C0.327752 56.4274 0 58.3607 0 60.3224V61.7199C0 63.9942 1.85025 65.8445 4.12463 65.8445H21.0847C22.2219 65.8445 23.2531 65.3818 23.9998 64.635C24.7469 63.8882 25.2093 62.8571 25.2093 61.7199V60.3224C25.2093 58.3607 24.8816 56.4271 24.2349 54.5752C23.6131 52.7953 23.2981 50.9362 23.2978 49.0508V46.7266H1.9112Z" fill="#E6E6E6"/>
<path fill-rule="evenodd" clip-rule="evenodd" d="M3.98145 10.084C1.50605 11.8236 0 14.6838 0 17.7424C0 18.7954 0.176081 19.8333 0.523108 20.8276C1.44341 23.4629 1.91034 26.2148 1.91148 29.006H23.2981C23.299 26.2148 23.7659 23.4632 24.6862 20.8276C25.0335 19.8333 25.2096 18.7954 25.2096 17.7424C25.2096 14.6838 23.7033 11.8239 21.2282 10.084H3.98145Z" fill="#E6E6E6"/>
<path fill-rule="evenodd" clip-rule="evenodd" d="M7.19531 6.71944V0.154297H18.0124V6.71944H7.19531Z" fill="#E6E6E6"/>
<path fill-rule="evenodd" clip-rule="evenodd" d="M20.4941 15.4688C20.8655 15.627 21.2523 15.773 21.6509 15.8989C21.2735 15.7375 20.886 15.5907 20.4941 15.469V15.4688Z" fill="#6E891A"/>
<path fill-rule="evenodd" clip-rule="evenodd" d="M43.2847 25.8005C49.7013 28.4185 52.0822 36.0829 52.0822 41.7952C52.0822 51.9687 42.0933 65.8444 35.6748 65.8444C34.0839 65.8444 32.5821 64.9686 31.4931 64.3097C30.5388 63.7324 28.7714 63.9371 28.1652 64.3097C27.0805 64.9745 25.5325 65.8444 23.9836 65.8444C16.3136 65.8444 7.63736 52.1258 7.5764 41.7952C7.5472 36.8203 10.2871 27.3808 17.721 25.3441C18.0464 25.2548 18.3796 25.1836 18.7138 25.1365C23.4367 24.4694 26.867 25.9281 28.3404 27.9479C28.4521 28.0967 28.5905 28.2229 28.745 28.3244C29.5944 28.8824 31.0724 28.8466 31.9831 28.114C32.0474 28.0624 32.1095 28.0071 32.1676 27.9485C34.1296 25.9661 36.639 23.8916 41.9377 25.3441C42.3947 25.4688 42.8472 25.6219 43.285 25.8011L43.2847 25.8005ZM13.3854 44.7934C13.0755 44.7928 12.8093 44.5714 12.7523 44.2666C11.2602 36.3066 14.7012 32.7456 14.8492 32.5979C14.9697 32.4777 15.1333 32.4105 15.3031 32.4105C15.6595 32.4105 15.9481 32.6991 15.9481 33.0555C15.9481 33.2239 15.8824 33.3861 15.7647 33.5063C15.7451 33.5264 14.9757 34.3356 14.38 36.0083C13.8237 37.5722 13.3092 40.2339 14.0211 44.029C14.0279 44.0679 14.0315 44.1076 14.0315 44.1473C14.0315 44.5039 13.7426 44.7926 13.3865 44.7928L13.3854 44.7934ZM13.9865 47.871C13.6839 47.8704 13.4217 47.6592 13.3573 47.3629L13.0724 46.0559C13.0616 46.0089 13.0562 45.9606 13.0562 45.9124C13.0562 45.5561 13.3451 45.2674 13.7009 45.2674C14.0069 45.2674 14.2708 45.4824 14.3329 45.7815L14.6176 47.0885C14.6275 47.1333 14.6323 47.1792 14.6323 47.2254C14.6323 47.5818 14.3431 47.871 13.9865 47.871Z" fill="#D23D20"/>
<path fill-rule="evenodd" clip-rule="evenodd" d="M31.3312 28.655C31.3043 28.8492 31.4824 29.216 31.2881 29.2416C28.0342 29.6725 24.7893 27.7582 21.6823 23.3532C20.4901 21.216 19.6914 17.932 19.9956 15.3458L20.2247 13.3892C20.2641 13.0493 20.5524 12.793 20.8946 12.793C20.9542 12.793 21.0134 12.8009 21.0704 12.8162L22.9734 13.3268C28.2094 14.7345 31.8546 19.4866 31.8546 24.9108C31.8546 25.3766 31.8268 25.8467 31.7727 26.308L31.4492 28.0304C31.3976 28.2473 31.3585 28.4556 31.3312 28.655Z" fill="#141414"/>
<path fill-rule="evenodd" clip-rule="evenodd" d="M35.1057 21.1368C33.5781 24.0619 32.0893 26.9342 32.0893 28.753C31.179 29.4862 29.6996 29.5236 28.8516 28.9636C28.8527 28.7675 28.8674 28.571 28.8946 28.3768L29.0129 27.7525C29.9848 23.6179 35.0405 16.4727 35.1082 12.7362C35.1139 11.84 35.8394 11.115 36.7354 11.1094C36.7368 11.1097 36.7385 11.1097 36.7399 11.1097C37.1649 11.1097 37.5729 11.2815 37.8694 11.5857C38.1691 11.8956 38.3449 12.3052 38.3619 12.7359C38.4532 14.7526 36.758 17.9742 35.1068 21.1346C35.1057 21.1357 35.1057 21.1357 35.1057 21.1368Z" fill="#141414"/>
</svg>
