<svg width="1059" height="443" viewBox="0 0 1059 443" fill="none" xmlns="http://www.w3.org/2000/svg">
<path d="M400.096 325.963H367.078V384H287.098V325.963H167.537V266.49L292.225 84.1758H367.078V265.465H400.096V325.963ZM287.098 265.465V230.602C287.098 224.039 287.303 215.221 287.713 204.146C288.26 192.936 288.67 187.057 288.943 186.51H286.688C282.039 197.037 276.775 206.881 270.896 216.041L237.674 265.465H287.098ZM637.781 234.498C637.781 287.545 628.895 326.441 611.121 351.188C593.348 375.797 566.141 388.102 529.5 388.102C493.68 388.102 466.678 375.25 448.494 349.547C430.311 323.707 421.219 285.357 421.219 234.498C421.219 181.178 430.105 142.076 447.879 117.193C465.652 92.3105 492.859 79.8691 529.5 79.8691C565.184 79.8691 592.117 92.8574 610.301 118.834C628.621 144.674 637.781 183.229 637.781 234.498ZM501.814 234.498C501.814 268.404 503.934 291.715 508.172 304.43C512.41 317.145 519.52 323.502 529.5 323.502C539.617 323.502 546.727 316.939 550.828 303.814C555.066 290.689 557.186 267.584 557.186 234.498C557.186 201.275 555.066 178.033 550.828 164.771C546.59 151.373 539.48 144.674 529.5 144.674C519.52 144.674 512.41 151.1 508.172 163.951C503.934 176.803 501.814 200.318 501.814 234.498ZM892.283 325.963H859.266V384H779.285V325.963H659.725V266.49L784.412 84.1758H859.266V265.465H892.283V325.963ZM779.285 265.465V230.602C779.285 224.039 779.49 215.221 779.9 204.146C780.447 192.936 780.857 187.057 781.131 186.51H778.875C774.227 197.037 768.963 206.881 763.084 216.041L729.861 265.465H779.285Z" fill="#F3F3F3"/>
<path d="M233.906 399.109C248.242 406.937 236.162 416.346 206.927 420.124C177.691 423.903 142.37 420.621 128.035 412.792C113.699 404.965 125.778 395.556 155.014 391.777C184.249 387.999 219.571 391.281 233.906 399.109Z" fill="#E1E4E9"/>
<path d="M239.981 402.422C239.65 400.979 239.318 399.536 238.987 398.093C239.067 398.44 239.095 398.786 239.088 399.132C239.095 398.786 239.067 398.439 238.987 398.091C238.673 396.741 237.986 395.495 236.888 394.282C236.676 394.048 236.384 393.743 236.147 393.535C235.689 393.134 235.058 392.623 234.575 392.254C233.991 391.808 233.137 391.318 232.508 390.937C231.688 390.494 230.58 389.931 229.734 389.542C229.01 389.209 228.027 388.805 227.279 388.533C225.833 388.007 223.879 387.383 222.407 386.94C221.46 386.655 220.177 386.344 219.217 386.105C217.038 385.563 213.551 384.901 212.739 384.771C211.691 384.603 210.297 384.351 209.245 384.211C207.057 383.918 204.136 383.545 201.94 383.327C199.679 383.104 191.568 382.384 182.15 382.534C179.213 382.58 179.213 382.58 174.038 382.826C172.832 382.883 171.228 383.023 170.024 383.109C168.743 383.2 166.331 383.421 162.114 383.961C161.776 384.004 158.701 384.404 154.988 385.12C153.116 385.48 150.641 386.067 148.79 386.527C146.575 387.077 142.909 388.266 140.608 389.303C139.233 389.923 138.151 390.429 136.743 391.306C135.352 392.173 134.692 392.746 133.842 393.521C133.758 393.596 133.315 394.01 132.721 394.757C132.425 395.129 132.275 395.376 131.975 395.867C131.973 395.871 131.722 396.287 131.476 396.906C131.346 397.232 131.332 397.283 131.162 397.91C131.122 398.083 131.119 398.257 131.101 398.43C131.119 398.257 131.122 398.084 131.162 397.912C130.825 399.354 130.488 400.796 130.152 402.238C129.552 404.809 131.289 407.461 135.668 409.948C149.045 417.549 182.005 420.736 209.286 417.067C229.885 414.297 241.356 408.411 239.981 402.422Z" fill="#EB7D2E"/>
<path d="M231.14 390.685C243.614 397.772 233.104 406.29 207.665 409.711C182.225 413.133 151.49 410.16 139.017 403.073C126.543 395.986 137.053 387.468 162.493 384.047C187.932 380.626 218.666 383.598 231.14 390.685ZM218.458 392.391C209.419 387.255 187.146 385.101 168.711 387.58C150.276 390.06 142.66 396.232 151.699 401.368C160.738 406.504 183.011 408.658 201.446 406.178C219.881 403.699 227.497 397.526 218.458 392.391Z" fill="#D76514"/>
<path d="M194.992 300.359C194.461 298.497 193.063 297.649 192.466 297.287C191.937 297.001 190.698 296.33 188.02 296.005C186.933 295.873 184.728 295.701 182.174 296.037C179.365 296.406 178.091 297.227 177.612 297.536C177.115 297.857 176.653 298.3 176.239 298.854C175.817 299.417 175.626 300.009 175.523 300.327C175.388 300.795 175.692 301.28 176.491 301.734C178.865 303.083 184.714 303.648 189.555 302.997C193.255 302.5 195.295 301.435 194.992 300.359Z" fill="#D76514"/>
<path d="M148.01 396.003C148.836 393.133 149.936 389.306 150.762 386.436C151.174 385 151.724 383.087 152.137 381.652C152.962 378.781 154.063 374.954 154.889 372.084C155.714 369.213 156.814 365.386 157.64 362.516C158.052 361.081 158.603 359.167 159.015 357.733C159.84 354.862 160.941 351.035 161.766 348.165C162.592 345.294 163.693 341.467 164.518 338.597C164.931 337.161 165.48 335.248 165.893 333.813C166.719 330.943 167.819 327.116 168.645 324.245C169.47 321.375 170.57 317.548 171.396 314.678C171.809 313.242 172.359 311.329 172.772 309.894C173.597 307.023 174.697 303.196 175.523 300.326C175.388 300.795 175.691 301.28 176.491 301.735C178.865 303.083 184.714 303.649 189.554 302.998C193.256 302.5 195.296 301.435 194.991 300.358C195.806 303.232 196.892 307.062 197.707 309.935C198.521 312.809 199.608 316.639 200.422 319.512C201.237 322.385 202.323 326.216 203.138 329.089C203.953 331.963 205.039 335.793 205.854 338.666C206.668 341.539 207.755 345.37 208.569 348.243C209.384 351.117 210.47 354.947 211.285 357.82C211.692 359.257 212.236 361.172 212.643 362.609C213.458 365.482 214.544 369.313 215.358 372.186C216.173 375.059 217.26 378.89 218.074 381.763C218.482 383.199 219.025 385.115 219.432 386.551C220.247 389.424 221.333 393.255 222.148 396.128C223.31 400.228 215.54 404.282 201.445 406.178C183.01 408.657 160.737 406.503 151.697 401.367C148.652 399.637 147.497 397.788 148.01 396.003Z" fill="#EB7D2E"/>
<path d="M207.563 344.685C208.265 347.16 203.573 349.609 195.061 350.754C183.928 352.251 170.478 350.951 165.019 347.849C163.179 346.804 162.482 345.688 162.792 344.609C163.617 341.739 164.718 337.912 165.543 335.042C165.956 333.607 166.506 331.693 166.918 330.258C167.489 328.275 168.249 325.631 168.819 323.648C168.592 324.438 169.103 325.255 170.45 326.021C174.449 328.293 184.302 329.245 192.456 328.149C198.691 327.311 202.128 325.517 201.614 323.703C202.429 326.577 203.515 330.407 204.33 333.28C204.737 334.717 205.28 336.632 205.688 338.069C206.25 340.054 207.001 342.7 207.563 344.685Z" fill="#E1E4E9"/>
<path d="M218.411 382.936C219.455 386.619 212.473 390.263 199.81 391.965C183.248 394.192 163.237 392.258 155.116 387.644C152.379 386.089 151.341 384.428 151.803 382.824C152.628 379.954 153.729 376.127 154.554 373.256C154.967 371.821 155.517 369.908 155.93 368.472C156.5 366.49 157.26 363.847 157.831 361.863C157.452 363.179 158.303 364.541 160.547 365.817C167.208 369.601 183.621 371.188 197.205 369.361C207.592 367.964 213.318 364.977 212.461 361.955L218.411 382.936Z" fill="#E1E4E9"/>
<path d="M939.906 399.109C954.242 406.937 942.162 416.346 912.927 420.124C883.691 423.903 848.37 420.621 834.035 412.792C819.699 404.965 831.778 395.556 861.014 391.777C890.249 387.999 925.571 391.281 939.906 399.109Z" fill="#E1E4E9"/>
<path d="M945.981 402.422C945.65 400.979 945.318 399.536 944.987 398.093C945.067 398.44 945.095 398.786 945.088 399.132C945.095 398.786 945.067 398.439 944.987 398.091C944.673 396.741 943.986 395.495 942.888 394.282C942.676 394.048 942.384 393.743 942.147 393.535C941.689 393.134 941.058 392.623 940.575 392.254C939.991 391.808 939.137 391.318 938.508 390.937C937.688 390.494 936.58 389.931 935.734 389.542C935.01 389.209 934.027 388.805 933.279 388.533C931.833 388.007 929.879 387.383 928.407 386.94C927.46 386.655 926.177 386.344 925.217 386.105C923.038 385.563 919.551 384.901 918.739 384.771C917.691 384.603 916.297 384.351 915.245 384.211C913.057 383.918 910.136 383.545 907.94 383.327C905.679 383.104 897.568 382.384 888.15 382.534C885.213 382.58 885.213 382.58 880.038 382.826C878.832 382.883 877.228 383.023 876.024 383.109C874.743 383.2 872.331 383.421 868.114 383.961C867.776 384.004 864.701 384.404 860.988 385.12C859.116 385.48 856.641 386.067 854.79 386.527C852.575 387.077 848.909 388.266 846.608 389.303C845.233 389.923 844.151 390.429 842.743 391.306C841.352 392.173 840.692 392.746 839.842 393.521C839.758 393.596 839.315 394.01 838.721 394.757C838.425 395.129 838.275 395.376 837.975 395.867C837.973 395.871 837.722 396.287 837.476 396.906C837.346 397.232 837.332 397.283 837.162 397.91C837.122 398.083 837.119 398.257 837.101 398.43C837.119 398.257 837.122 398.084 837.162 397.912C836.825 399.354 836.488 400.796 836.152 402.238C835.552 404.809 837.289 407.461 841.668 409.948C855.045 417.549 888.005 420.736 915.286 417.067C935.885 414.297 947.356 408.411 945.981 402.422Z" fill="#EB7D2E"/>
<path d="M937.14 390.685C949.614 397.772 939.104 406.29 913.665 409.711C888.225 413.133 857.49 410.16 845.017 403.073C832.543 395.986 843.053 387.468 868.493 384.047C893.932 380.626 924.666 383.598 937.14 390.685ZM924.458 392.391C915.419 387.255 893.146 385.101 874.711 387.58C856.276 390.06 848.66 396.232 857.699 401.368C866.738 406.504 889.011 408.658 907.446 406.178C925.881 403.699 933.497 397.526 924.458 392.391Z" fill="#D76514"/>
<path d="M900.992 300.359C900.461 298.497 899.063 297.649 898.466 297.287C897.937 297.001 896.698 296.33 894.02 296.005C892.933 295.873 890.728 295.701 888.174 296.037C885.365 296.406 884.091 297.227 883.612 297.536C883.115 297.857 882.653 298.3 882.239 298.854C881.817 299.417 881.626 300.009 881.523 300.327C881.388 300.795 881.692 301.28 882.491 301.734C884.865 303.083 890.714 303.648 895.555 302.997C899.255 302.5 901.295 301.435 900.992 300.359Z" fill="#D76514"/>
<path d="M854.01 396.003C854.836 393.133 855.936 389.306 856.762 386.436C857.174 385 857.724 383.087 858.137 381.652C858.962 378.781 860.063 374.954 860.889 372.084C861.714 369.213 862.814 365.386 863.64 362.516C864.052 361.081 864.603 359.167 865.015 357.733C865.84 354.862 866.941 351.035 867.766 348.165C868.592 345.294 869.693 341.467 870.518 338.597C870.931 337.161 871.48 335.248 871.893 333.813C872.719 330.943 873.819 327.116 874.645 324.245C875.47 321.375 876.57 317.548 877.396 314.678C877.809 313.242 878.359 311.329 878.772 309.894C879.597 307.023 880.697 303.196 881.523 300.326C881.388 300.795 881.691 301.28 882.491 301.735C884.865 303.083 890.714 303.649 895.554 302.998C899.256 302.5 901.296 301.435 900.991 300.358C901.806 303.232 902.892 307.062 903.707 309.935C904.521 312.809 905.608 316.639 906.422 319.512C907.237 322.385 908.323 326.216 909.138 329.089C909.953 331.963 911.039 335.793 911.854 338.666C912.668 341.539 913.755 345.37 914.569 348.243C915.384 351.117 916.47 354.947 917.285 357.82C917.692 359.257 918.236 361.172 918.643 362.609C919.458 365.482 920.544 369.313 921.358 372.186C922.173 375.059 923.26 378.89 924.074 381.763C924.482 383.199 925.025 385.115 925.432 386.551C926.247 389.424 927.333 393.255 928.148 396.128C929.31 400.228 921.54 404.282 907.445 406.178C889.01 408.657 866.737 406.503 857.697 401.367C854.652 399.637 853.497 397.788 854.01 396.003Z" fill="#EB7D2E"/>
<path d="M913.563 344.685C914.265 347.16 909.573 349.609 901.061 350.754C889.928 352.251 876.478 350.951 871.019 347.849C869.179 346.804 868.482 345.688 868.792 344.609C869.617 341.739 870.718 337.912 871.543 335.042C871.956 333.607 872.506 331.693 872.918 330.258C873.489 328.275 874.249 325.631 874.819 323.648C874.592 324.438 875.103 325.255 876.45 326.021C880.449 328.293 890.302 329.245 898.456 328.149C904.691 327.311 908.128 325.517 907.614 323.703C908.429 326.577 909.515 330.407 910.33 333.28C910.737 334.717 911.28 336.632 911.688 338.069C912.25 340.054 913.001 342.7 913.563 344.685Z" fill="#E1E4E9"/>
<path d="M924.411 382.936C925.455 386.619 918.473 390.263 905.81 391.965C889.248 394.192 869.237 392.258 861.116 387.644C858.379 386.089 857.341 384.428 857.803 382.824C858.628 379.954 859.729 376.127 860.554 373.256C860.967 371.821 861.517 369.908 861.93 368.472C862.5 366.49 863.26 363.847 863.831 361.863C863.452 363.179 864.303 364.541 866.547 365.817C873.208 369.601 889.621 371.188 903.205 369.361C913.592 367.964 919.318 364.977 918.461 361.955L924.411 382.936Z" fill="#E1E4E9"/>
</svg>
