<svg width="768" height="443" viewBox="0 0 768 443" fill="none" xmlns="http://www.w3.org/2000/svg">
<path d="M285.406 301.781H260.25V346H199.312V301.781H108.219V256.469L203.219 117.562H260.25V255.688H285.406V301.781ZM199.312 255.688V229.125C199.312 224.125 199.469 217.406 199.781 208.969C200.198 200.427 200.51 195.948 200.719 195.531H199C195.458 203.552 191.448 211.052 186.969 218.031L161.656 255.688H199.312ZM466.5 232.094C466.5 272.51 459.729 302.146 446.188 321C432.646 339.75 411.917 349.125 384 349.125C356.708 349.125 336.135 339.333 322.281 319.75C308.427 300.062 301.5 270.844 301.5 232.094C301.5 191.469 308.271 161.677 321.812 142.719C335.354 123.76 356.083 114.281 384 114.281C411.188 114.281 431.708 124.177 445.562 143.969C459.521 163.656 466.5 193.031 466.5 232.094ZM362.906 232.094C362.906 257.927 364.521 275.688 367.75 285.375C370.979 295.062 376.396 299.906 384 299.906C391.708 299.906 397.125 294.906 400.25 284.906C403.479 274.906 405.094 257.302 405.094 232.094C405.094 206.781 403.479 189.073 400.25 178.969C397.021 168.76 391.604 163.656 384 163.656C376.396 163.656 370.979 168.552 367.75 178.344C364.521 188.135 362.906 206.052 362.906 232.094ZM660.406 301.781H635.25V346H574.312V301.781H483.219V256.469L578.219 117.562H635.25V255.688H660.406V301.781ZM574.312 255.688V229.125C574.312 224.125 574.469 217.406 574.781 208.969C575.198 200.427 575.51 195.948 575.719 195.531H574C570.458 203.552 566.448 211.052 561.969 218.031L536.656 255.688H574.312Z" fill="#F3F3F3"/>
<path d="M108.82 402.963C120.198 409.176 110.61 416.644 87.4062 419.643C64.2022 422.642 36.1675 420.037 24.7897 413.823C13.4115 407.611 22.9988 400.143 46.2028 397.144C69.4071 394.145 97.4418 396.75 108.82 402.963Z" fill="#E1E4E9"/>
<path d="M113.641 405.593C113.378 404.447 113.115 403.302 112.853 402.157C112.916 402.432 112.938 402.707 112.932 402.981C112.938 402.707 112.916 402.431 112.852 402.155C112.603 401.084 112.058 400.095 111.186 399.132C111.018 398.947 110.786 398.704 110.598 398.539C110.235 398.221 109.734 397.815 109.35 397.523C108.887 397.168 108.209 396.779 107.71 396.477C107.059 396.126 106.18 395.678 105.508 395.37C104.934 395.106 104.153 394.785 103.559 394.569C102.412 394.152 100.861 393.656 99.6929 393.304C98.941 393.078 97.9229 392.832 97.1612 392.642C95.4314 392.211 92.6635 391.687 92.0193 391.583C91.1875 391.449 90.0811 391.25 89.246 391.138C87.5093 390.906 85.1915 390.61 83.4478 390.437C81.6532 390.26 75.2158 389.689 67.7409 389.808C65.4099 389.844 65.4099 389.844 61.3022 390.039C60.3454 390.085 59.0722 390.196 58.1164 390.264C57.0998 390.336 55.1854 390.512 51.8384 390.94C51.5697 390.975 49.1294 391.292 46.1823 391.86C44.6963 392.146 42.732 392.612 41.2631 392.977C39.5054 393.414 36.5954 394.357 34.7687 395.18C33.6775 395.672 32.8189 396.074 31.7016 396.77C30.5977 397.458 30.0731 397.913 29.3985 398.528C29.3325 398.588 28.9807 398.916 28.5093 399.509C28.2745 399.804 28.1553 400 27.9173 400.39C27.9153 400.393 27.7165 400.724 27.5209 401.215C27.4181 401.473 27.407 401.514 27.2719 402.012C27.2401 402.149 27.2375 402.287 27.223 402.424C27.2375 402.287 27.2396 402.149 27.2716 402.013C27.0044 403.158 26.737 404.302 26.4701 405.446C25.9939 407.487 27.3726 409.592 30.8481 411.566C41.4656 417.599 67.6256 420.128 89.2783 417.217C105.628 415.018 114.732 410.346 113.641 405.593Z" fill="#EB7D2E"/>
<path d="M106.624 396.276C116.525 401.901 108.183 408.662 87.9914 411.377C67.8001 414.093 43.4059 411.734 33.5057 406.109C23.605 400.484 31.9471 393.723 52.1384 391.007C72.3295 388.292 96.7234 390.651 106.624 396.276ZM96.558 397.63C89.3837 393.554 71.706 391.844 57.0738 393.812C42.4421 395.78 36.3972 400.679 43.5712 404.755C50.7459 408.832 68.4239 410.541 83.0556 408.573C97.6872 406.605 103.733 401.706 96.558 397.63Z" fill="#D76514"/>
<path d="M77.934 324.586C77.5126 323.107 76.4027 322.434 75.9292 322.147C75.509 321.92 74.5258 321.387 72.4005 321.129C71.5375 321.025 69.7873 320.888 67.7604 321.155C65.5307 321.448 64.5199 322.1 64.1395 322.345C63.7452 322.6 63.3786 322.951 63.0496 323.39C62.7144 323.837 62.5631 324.308 62.4815 324.56C62.3747 324.932 62.6156 325.317 63.2499 325.677C65.1344 326.747 69.7765 327.196 73.6185 326.679C76.5554 326.284 78.1748 325.44 77.934 324.586Z" fill="#D76514"/>
<path d="M40.6441 400.498C41.2994 398.219 42.1726 395.182 42.8278 392.904C43.1553 391.765 43.592 390.246 43.9193 389.107C44.5746 386.829 45.4483 383.791 46.1036 381.513C46.7583 379.235 47.632 376.197 48.287 373.919C48.6144 372.78 49.0513 371.261 49.3787 370.122C50.0338 367.844 50.9074 364.806 51.5622 362.528C52.2175 360.25 53.0912 357.212 53.7465 354.935C54.0738 353.795 54.5102 352.277 54.8379 351.137C55.4932 348.859 56.3663 345.822 57.0216 343.544C57.6766 341.265 58.55 338.228 59.2051 335.95C59.5329 334.81 59.9694 333.292 60.2972 332.153C60.9521 329.875 61.8257 326.837 62.4807 324.559C62.3735 324.931 62.6143 325.316 63.2489 325.677C65.1334 326.747 69.7755 327.196 73.6176 326.679C76.5556 326.285 78.1752 325.439 77.9326 324.585C78.5793 326.865 79.4413 329.906 80.0881 332.186C80.7347 334.466 81.5969 337.507 82.2434 339.787C82.8902 342.068 83.7525 345.108 84.3989 347.388C85.0457 349.669 85.9077 352.709 86.5544 354.99C87.201 357.27 88.0633 360.311 88.7098 362.591C89.3565 364.871 90.2185 367.912 90.8653 370.192C91.1886 371.332 91.6199 372.853 91.9431 373.993C92.5896 376.273 93.4519 379.314 94.0984 381.594C94.7452 383.874 95.6074 386.915 96.2539 389.195C96.5772 390.335 97.0084 391.856 97.3317 392.996C97.9782 395.276 98.8405 398.317 99.487 400.597C100.41 403.851 94.2423 407.069 83.055 408.573C68.4234 410.541 50.7454 408.832 43.5707 404.755C41.1532 403.382 40.2369 401.915 40.6441 400.498Z" fill="#EB7D2E"/>
<path d="M87.912 359.766C88.4691 361.731 84.7448 363.675 77.9888 364.584C69.1527 365.772 58.477 364.739 54.1444 362.278C52.6842 361.448 52.1305 360.562 52.3768 359.706C53.0315 357.429 53.9052 354.391 54.5605 352.113C54.8879 350.974 55.3246 349.455 55.652 348.316C56.1046 346.742 56.708 344.644 57.1607 343.07C56.9803 343.696 57.3858 344.345 58.4553 344.953C61.629 346.756 69.449 347.512 75.9213 346.642C80.8699 345.977 83.5981 344.553 83.19 343.114C83.8365 345.394 84.6988 348.434 85.3454 350.715C85.6686 351.855 86.0998 353.375 86.4231 354.516C86.8696 356.091 87.4652 358.191 87.912 359.766Z" fill="#E1E4E9"/>
<path d="M96.5217 390.126C97.3503 393.05 91.8091 395.941 81.7585 397.293C68.6128 399.06 52.7304 397.525 46.2845 393.863C44.1124 392.629 43.2889 391.311 43.6554 390.037C44.3101 387.76 45.1838 384.722 45.8388 382.443C46.1661 381.304 46.6031 379.786 46.9308 378.647C47.3832 377.073 47.9866 374.975 48.4393 373.401C48.1388 374.445 48.8139 375.526 50.5956 376.539C55.8824 379.542 68.909 380.802 79.6908 379.352C87.9346 378.243 92.4793 375.872 91.7992 373.474L96.5217 390.126Z" fill="#E1E4E9"/>
<path d="M743.183 402.963C754.561 409.176 744.974 416.644 721.769 419.643C698.565 422.642 670.531 420.037 659.153 413.823C647.775 407.611 657.362 400.143 680.566 397.144C703.77 394.145 731.805 396.75 743.183 402.963Z" fill="#E1E4E9"/>
<path d="M748.004 405.593C747.742 404.447 747.479 403.302 747.216 402.157C747.279 402.432 747.302 402.707 747.295 402.981C747.302 402.707 747.279 402.431 747.215 402.155C746.966 401.084 746.421 400.095 745.549 399.132C745.381 398.947 745.149 398.704 744.961 398.539C744.598 398.221 744.097 397.815 743.714 397.523C743.25 397.168 742.572 396.779 742.073 396.477C741.423 396.126 740.543 395.678 739.871 395.37C739.297 395.106 738.516 394.785 737.923 394.569C736.775 394.152 735.224 393.656 734.056 393.304C733.304 393.078 732.286 392.832 731.524 392.642C729.795 392.211 727.027 391.687 726.383 391.583C725.551 391.449 724.444 391.25 723.609 391.138C721.873 390.906 719.555 390.61 717.811 390.437C716.016 390.26 709.579 389.689 702.104 389.808C699.773 389.844 699.773 389.844 695.665 390.039C694.709 390.085 693.435 390.196 692.48 390.264C691.463 390.336 689.549 390.512 686.202 390.94C685.933 390.975 683.493 391.292 680.546 391.86C679.06 392.146 677.095 392.612 675.626 392.977C673.869 393.414 670.959 394.357 669.132 395.18C668.041 395.672 667.182 396.074 666.065 396.77C664.961 397.458 664.436 397.913 663.762 398.528C663.696 398.588 663.344 398.916 662.873 399.509C662.638 399.804 662.519 400 662.281 400.39C662.279 400.393 662.08 400.724 661.884 401.215C661.781 401.473 661.77 401.514 661.635 402.012C661.603 402.149 661.601 402.287 661.586 402.424C661.601 402.287 661.603 402.149 661.635 402.013C661.368 403.158 661.1 404.302 660.833 405.446C660.357 407.487 661.736 409.592 665.211 411.566C675.829 417.599 701.989 420.128 723.642 417.217C739.991 415.018 749.096 410.346 748.004 405.593Z" fill="#EB7D2E"/>
<path d="M740.987 396.276C750.888 401.901 742.546 408.662 722.355 411.377C702.163 414.093 677.769 411.734 667.869 406.109C657.968 400.484 666.31 393.723 686.502 391.007C706.693 388.292 731.087 390.651 740.987 396.276ZM730.921 397.63C723.747 393.554 706.069 391.844 691.437 393.812C676.805 395.78 670.76 400.679 677.935 404.755C685.109 408.832 702.787 410.541 717.419 408.573C732.051 406.605 738.096 401.706 730.921 397.63Z" fill="#D76514"/>
<path d="M712.297 324.586C711.876 323.107 710.766 322.434 710.292 322.147C709.872 321.92 708.889 321.387 706.764 321.129C705.901 321.025 704.151 320.888 702.124 321.155C699.894 321.448 698.883 322.1 698.503 322.345C698.109 322.6 697.742 322.951 697.413 323.39C697.078 323.837 696.926 324.308 696.845 324.56C696.738 324.932 696.979 325.317 697.613 325.677C699.498 326.747 704.14 327.196 707.982 326.679C710.919 326.284 712.538 325.44 712.297 324.586Z" fill="#D76514"/>
<path d="M675.007 400.498C675.663 398.219 676.536 395.182 677.191 392.904C677.519 391.765 677.955 390.246 678.283 389.107C678.938 386.829 679.812 383.791 680.467 381.513C681.122 379.235 681.995 376.197 682.65 373.919C682.978 372.78 683.415 371.261 683.742 370.122C684.397 367.844 685.271 364.806 685.925 362.528C686.581 360.25 687.454 357.212 688.11 354.935C688.437 353.795 688.873 352.277 689.201 351.137C689.856 348.859 690.73 345.822 691.385 343.544C692.04 341.265 692.913 338.228 693.568 335.95C693.896 334.81 694.333 333.292 694.661 332.153C695.315 329.875 696.189 326.837 696.844 324.559C696.737 324.931 696.978 325.316 697.612 325.677C699.497 326.747 704.139 327.196 707.981 326.679C710.919 326.285 712.538 325.439 712.296 324.585C712.943 326.865 713.805 329.906 714.451 332.186C715.098 334.466 715.96 337.507 716.607 339.787C717.253 342.068 718.116 345.108 718.762 347.388C719.409 349.669 720.271 352.709 720.918 354.99C721.564 357.27 722.427 360.311 723.073 362.591C723.72 364.871 724.582 367.912 725.229 370.192C725.552 371.332 725.983 372.853 726.306 373.993C726.953 376.273 727.815 379.314 728.462 381.594C729.108 383.874 729.971 386.915 730.617 389.195C730.94 390.335 731.372 391.856 731.695 392.996C732.341 395.276 733.204 398.317 733.85 400.597C734.773 403.851 728.606 407.069 717.418 408.573C702.787 410.541 685.109 408.832 677.934 404.755C675.516 403.382 674.6 401.915 675.007 400.498Z" fill="#EB7D2E"/>
<path d="M722.274 359.766C722.831 361.731 719.107 363.675 712.351 364.584C703.515 365.772 692.839 364.739 688.507 362.278C687.047 361.448 686.493 360.562 686.739 359.706C687.394 357.429 688.268 354.391 688.923 352.113C689.25 350.974 689.687 349.455 690.014 348.316C690.467 346.742 691.07 344.644 691.523 343.07C691.343 343.696 691.748 344.345 692.818 344.953C695.991 346.756 703.811 347.512 710.284 346.642C715.232 345.977 717.96 344.553 717.552 343.114C718.199 345.394 719.061 348.434 719.708 350.715C720.031 351.855 720.462 353.375 720.785 354.516C721.232 356.091 721.828 358.191 722.274 359.766Z" fill="#E1E4E9"/>
<path d="M730.884 390.126C731.713 393.05 726.171 395.941 716.121 397.293C702.975 399.06 687.093 397.525 680.647 393.863C678.475 392.629 677.651 391.311 678.018 390.037C678.672 387.76 679.546 384.722 680.201 382.443C680.528 381.304 680.965 379.786 681.293 378.647C681.746 377.073 682.349 374.975 682.802 373.401C682.501 374.445 683.176 375.526 684.958 376.539C690.245 379.542 703.271 380.802 714.053 379.352C722.297 378.243 726.842 375.872 726.162 373.474L730.884 390.126Z" fill="#E1E4E9"/>
</svg>
