<svg width="330" height="456" viewBox="0 0 330 456" fill="none" xmlns="http://www.w3.org/2000/svg">
<path d="M109.541 139.127H95.3906V164H61.1133V139.127H9.87305V113.639L63.3105 35.5039H95.3906V113.199H109.541V139.127ZM61.1133 113.199V98.2578C61.1133 95.4453 61.2012 91.666 61.377 86.9199C61.6113 82.1152 61.7871 79.5957 61.9043 79.3613H60.9375C58.9453 83.873 56.6895 88.0918 54.1699 92.0176L39.9316 113.199H61.1133ZM211.406 99.9277C211.406 122.662 207.598 139.332 199.98 149.938C192.363 160.484 180.703 165.758 165 165.758C149.648 165.758 138.076 160.25 130.283 149.234C122.49 138.16 118.594 121.725 118.594 99.9277C118.594 77.0762 122.402 60.3184 130.02 49.6543C137.637 38.9902 149.297 33.6582 165 33.6582C180.293 33.6582 191.836 39.2246 199.629 50.3574C207.48 61.4316 211.406 77.9551 211.406 99.9277ZM153.135 99.9277C153.135 114.459 154.043 124.449 155.859 129.898C157.676 135.348 160.723 138.072 165 138.072C169.336 138.072 172.383 135.26 174.141 129.635C175.957 124.01 176.865 114.107 176.865 99.9277C176.865 85.6895 175.957 75.7285 174.141 70.0449C172.324 64.3027 169.277 61.4316 165 61.4316C160.723 61.4316 157.676 64.1855 155.859 69.6934C154.043 75.2012 153.135 85.2793 153.135 99.9277ZM320.479 139.127H306.328V164H272.051V139.127H220.811V113.639L274.248 35.5039H306.328V113.199H320.479V139.127ZM272.051 113.199V98.2578C272.051 95.4453 272.139 91.666 272.314 86.9199C272.549 82.1152 272.725 79.5957 272.842 79.3613H271.875C269.883 83.873 267.627 88.0918 265.107 92.0176L250.869 113.199H272.051Z" fill="#F3F3F3"/>
<path d="M203.82 437.963C215.198 444.176 205.61 451.644 182.406 454.643C159.202 457.642 131.167 455.037 119.79 448.823C108.412 442.611 117.999 435.143 141.203 432.144C164.407 429.145 192.442 431.75 203.82 437.963Z" fill="#E1E4E9"/>
<path d="M208.641 440.592C208.378 439.447 208.115 438.302 207.853 437.157C207.916 437.432 207.938 437.707 207.932 437.981C207.938 437.707 207.916 437.431 207.852 437.155C207.603 436.084 207.058 435.095 206.186 434.132C206.018 433.946 205.786 433.704 205.598 433.539C205.235 433.221 204.734 432.815 204.35 432.522C203.887 432.168 203.209 431.779 202.71 431.477C202.059 431.126 201.18 430.678 200.508 430.369C199.934 430.105 199.153 429.784 198.559 429.569C197.412 429.152 195.861 428.656 194.693 428.304C193.941 428.078 192.923 427.832 192.161 427.642C190.431 427.211 187.663 426.687 187.019 426.583C186.188 426.449 185.081 426.25 184.246 426.138C182.509 425.906 180.191 425.61 178.448 425.437C176.653 425.26 170.216 424.689 162.741 424.808C160.41 424.844 160.41 424.844 156.302 425.039C155.345 425.084 154.072 425.196 153.116 425.264C152.1 425.336 150.185 425.512 146.838 425.94C146.57 425.974 144.129 426.292 141.182 426.86C139.696 427.146 137.732 427.612 136.263 427.977C134.505 428.413 131.595 429.357 129.769 430.18C128.678 430.672 127.819 431.074 126.702 431.77C125.598 432.458 125.073 432.913 124.399 433.528C124.333 433.588 123.981 433.916 123.509 434.509C123.274 434.804 123.155 435 122.917 435.39C122.915 435.393 122.717 435.723 122.521 436.215C122.418 436.473 122.407 436.514 122.272 437.012C122.24 437.149 122.238 437.286 122.223 437.424C122.238 437.287 122.24 437.149 122.272 437.013C122.004 438.158 121.737 439.302 121.47 440.446C120.994 442.487 122.373 444.592 125.848 446.566C136.466 452.599 162.626 455.128 184.278 452.217C200.628 450.018 209.732 445.346 208.641 440.592Z" fill="#EB7D2E"/>
<path d="M201.624 431.276C211.525 436.901 203.183 443.662 182.991 446.377C162.8 449.093 138.406 446.734 128.506 441.109C118.605 435.484 126.947 428.723 147.138 426.007C167.33 423.292 191.723 425.651 201.624 431.276ZM191.558 432.63C184.384 428.554 166.706 426.844 152.074 428.812C137.442 430.78 131.397 435.679 138.571 439.755C145.746 443.832 163.424 445.541 178.056 443.573C192.687 441.606 198.733 436.706 191.558 432.63Z" fill="#D76514"/>
<path d="M172.934 359.586C172.513 358.107 171.403 357.434 170.929 357.147C170.509 356.92 169.526 356.387 167.4 356.129C166.537 356.025 164.787 355.888 162.76 356.155C160.531 356.448 159.52 357.1 159.14 357.345C158.745 357.6 158.379 357.951 158.05 358.39C157.714 358.837 157.563 359.308 157.481 359.56C157.375 359.932 157.616 360.317 158.25 360.677C160.134 361.747 164.776 362.196 168.619 361.679C171.555 361.284 173.175 360.44 172.934 359.586Z" fill="#D76514"/>
<path d="M135.644 435.497C136.299 433.219 137.173 430.182 137.828 427.904C138.155 426.765 138.592 425.246 138.919 424.107C139.575 421.828 140.448 418.791 141.104 416.513C141.758 414.235 142.632 411.197 143.287 408.919C143.614 407.78 144.051 406.261 144.379 405.122C145.034 402.844 145.907 399.806 146.562 397.528C147.217 395.25 148.091 392.212 148.746 389.934C149.074 388.795 149.51 387.276 149.838 386.137C150.493 383.859 151.366 380.822 152.022 378.544C152.677 376.265 153.55 373.228 154.205 370.95C154.533 369.81 154.969 368.292 155.297 367.153C155.952 364.874 156.826 361.837 157.481 359.559C157.374 359.931 157.614 360.316 158.249 360.677C160.133 361.747 164.776 362.196 168.618 361.679C171.556 361.284 173.175 360.439 172.933 359.584C173.579 361.865 174.441 364.905 175.088 367.186C175.735 369.466 176.597 372.507 177.243 374.787C177.89 377.067 178.752 380.108 179.399 382.388C180.046 384.669 180.908 387.709 181.554 389.989C182.201 392.27 183.063 395.31 183.71 397.591C184.357 399.871 185.219 402.912 185.865 405.192C186.189 406.332 186.62 407.852 186.943 408.992C187.59 411.273 188.452 414.313 189.098 416.594C189.745 418.874 190.607 421.915 191.254 424.195C191.577 425.335 192.008 426.855 192.332 427.995C192.978 430.276 193.84 433.316 194.487 435.597C195.41 438.85 189.242 442.069 178.055 443.573C163.423 445.541 145.745 443.832 138.571 439.755C136.153 438.382 135.237 436.914 135.644 435.497Z" fill="#EB7D2E"/>
<path d="M182.912 394.766C183.469 396.731 179.745 398.675 172.989 399.584C164.153 400.772 153.477 399.74 149.144 397.278C147.684 396.448 147.13 395.562 147.377 394.707C148.032 392.429 148.905 389.391 149.561 387.113C149.888 385.974 150.325 384.455 150.652 383.316C151.105 381.742 151.708 379.644 152.161 378.07C151.98 378.697 152.386 379.345 153.455 379.953C156.629 381.756 164.449 382.512 170.921 381.642C175.87 380.977 178.598 379.553 178.19 378.114C178.837 380.394 179.699 383.435 180.345 385.715C180.669 386.855 181.1 388.375 181.423 389.516C181.87 391.091 182.465 393.191 182.912 394.766Z" fill="#E1E4E9"/>
<path d="M191.522 425.127C192.35 428.05 186.809 430.941 176.758 432.293C163.613 434.061 147.73 432.525 141.285 428.863C139.112 427.629 138.289 426.311 138.655 425.038C139.31 422.76 140.184 419.722 140.839 417.444C141.166 416.305 141.603 414.786 141.931 413.647C142.383 412.073 142.987 409.975 143.439 408.401C143.139 409.445 143.814 410.526 145.596 411.539C150.882 414.542 163.909 415.802 174.691 414.352C182.935 413.243 187.479 410.872 186.799 408.474L191.522 425.127Z" fill="#E1E4E9"/>
</svg>
