<svg width="37" height="39" viewBox="0 0 37 39" fill="none" xmlns="http://www.w3.org/2000/svg">
<path fill-rule="evenodd" clip-rule="evenodd" d="M8.35492 9.54241V2.38105V0H31.0325V2.38105V9.54241H8.35492Z" fill="#E6E6E6"/>
<path fill-rule="evenodd" clip-rule="evenodd" d="M33.4195 15.3164C35.3948 15.3164 37 16.9211 37 18.8971C37 20.8725 35.3948 22.4778 33.4195 22.4778H31.0323V15.3164H33.4195ZM8.35471 15.3164V22.4778H3.58044C5.55582 22.4778 7.16113 20.8725 7.16113 18.8971C7.16113 16.9211 5.55582 15.3164 3.58044 15.3164H8.35471Z" fill="#D23D20"/>
<path fill-rule="evenodd" clip-rule="evenodd" d="M31.0321 34.4219L27.4515 38.0026V34.4219H31.0321Z" fill="#DEDEDE"/>
<path fill-rule="evenodd" clip-rule="evenodd" d="M27.4519 38.0019V38.0078H8.35492V23.6733V16.5119V14.1309H31.0325V16.5119V23.6733V34.4212H27.4519V38.0019ZM27.434 29.6411V29.635L22.063 21.2861L18.7687 26.4065L16.9903 23.6733L13.1113 29.6411H16.6919H27.434ZM15.5043 20.0806C15.5043 19.4189 14.9672 18.8871 14.3107 18.8871C13.6483 18.8871 13.1173 19.4189 13.1173 20.0806C13.1173 20.7378 13.6483 21.2742 14.3107 21.2742C14.9672 21.2742 15.5043 20.7371 15.5043 20.0806Z" fill="#E6E6E6"/>
<path fill-rule="evenodd" clip-rule="evenodd" d="M3.5805 15.3164C5.55587 15.3164 7.16118 16.9211 7.16118 18.8971C7.16118 20.8725 5.55587 22.4778 3.5805 22.4778C1.60529 22.4778 0 20.8725 0 18.8971C0 16.9217 1.60529 15.3164 3.5805 15.3164ZM4.77408 18.8971C4.77408 18.2401 4.23699 17.7035 3.5805 17.7035L3.54982 17.704L3.51946 17.7052L3.48915 17.7071L3.45911 17.7098L3.42908 17.7132L3.39942 17.7173L3.37003 17.7224C3.35052 17.7258 3.33116 17.7298 3.31196 17.7344C3.26407 17.7454 3.21699 17.7595 3.17122 17.7764C3.13481 17.7897 3.09905 17.8049 3.06427 17.8216C2.6732 18.0106 2.39922 18.4071 2.38757 18.8664L2.38711 18.8971C2.38711 19.5536 2.92417 20.0906 3.5805 20.0906C4.23699 20.0906 4.77408 19.5536 4.77408 18.8971Z" fill="#E6E6E6"/>
<path fill-rule="evenodd" clip-rule="evenodd" d="M3.58064 6.96289C5.55585 6.96289 7.16118 8.56212 7.16118 10.5434C7.16118 12.5188 5.55585 14.1241 3.58064 14.1241C1.60526 14.1241 0 12.5188 0 10.5434C0 8.56212 1.60526 6.96289 3.58064 6.96289ZM4.77422 10.5434C4.77422 9.88642 4.23697 9.35001 3.58064 9.35001C2.92415 9.35001 2.38711 9.88642 2.38711 10.5434C2.38711 11.2053 2.92415 11.737 3.58064 11.737C4.23697 11.737 4.77422 11.206 4.77422 10.5434Z" fill="#E6E6E6"/>
<path fill-rule="evenodd" clip-rule="evenodd" d="M33.4193 6.96289C35.3947 6.96289 37 8.56212 37 10.5434C37 12.5188 35.3947 14.1241 33.4193 14.1241H3.58044C5.55566 14.1241 7.16099 12.5188 7.16099 10.5434C7.16099 8.56212 5.55566 6.96289 3.58044 6.96289H33.4193Z" fill="#D23D20"/>
<path fill-rule="evenodd" clip-rule="evenodd" d="M17.072 29.044L18.447 26.907C18.5449 26.9715 18.6578 27.009 18.7734 27.009C18.8851 27.009 18.9978 26.978 19.0981 26.9129C19.3745 26.7328 19.4532 26.3632 19.2736 26.087L17.4934 23.3478C17.4923 23.346 17.4904 23.3453 17.4891 23.3435C17.4683 23.3114 17.4349 23.2881 17.4075 23.26C17.3788 23.2313 17.3543 23.198 17.3215 23.1759C17.3197 23.1747 17.3192 23.1729 17.3174 23.1718C17.2923 23.1555 17.2636 23.1519 17.2374 23.1401C17.1944 23.1204 17.1527 23.0971 17.1066 23.0881C17.0685 23.0804 17.0303 23.0858 16.9921 23.0858C16.9539 23.0858 16.9157 23.0804 16.8775 23.0881C16.8322 23.0971 16.7903 23.1204 16.748 23.1395C16.7211 23.1519 16.6919 23.1551 16.6668 23.1716C16.665 23.1729 16.6645 23.1747 16.6627 23.1759C16.6299 23.1974 16.6066 23.2308 16.5779 23.2589C16.5499 23.2874 16.5164 23.3107 16.4951 23.3435C16.4938 23.3453 16.4919 23.346 16.4908 23.3478L12.6117 29.3156C12.6016 29.3304 12.6011 29.3478 12.5933 29.3632C12.5742 29.3984 12.561 29.4342 12.5497 29.4731C12.5377 29.5125 12.5294 29.5513 12.5258 29.5912C12.5246 29.6086 12.5158 29.6235 12.5158 29.6407C12.5158 29.6617 12.5258 29.679 12.5276 29.6998C12.5318 29.7405 12.5395 29.7792 12.5515 29.8186C12.5633 29.8556 12.5778 29.8884 12.5957 29.9224C12.6129 29.9552 12.6332 29.9846 12.6577 30.0138C12.6839 30.0461 12.7126 30.0735 12.7448 30.0997C12.761 30.1122 12.7705 30.1302 12.7877 30.1415C12.8069 30.154 12.8289 30.1594 12.8499 30.1696C12.8689 30.1798 12.8868 30.1886 12.9072 30.1965C12.974 30.2209 13.0438 30.2377 13.1131 30.2377L13.1137 30.2375H17.5074C17.8374 30.2375 18.1041 29.9708 18.1041 29.6407C18.1041 29.3107 17.8368 29.044 17.5074 29.044H17.072Z" fill="#141414"/>
<path fill-rule="evenodd" clip-rule="evenodd" d="M27.9467 29.931C27.9682 29.8934 27.9849 29.8547 27.998 29.8122C28.0093 29.7758 28.0159 29.74 28.0202 29.7018C28.0225 29.681 28.0326 29.6631 28.0326 29.641C28.0326 29.6237 28.0238 29.6088 28.0225 29.5921C28.0195 29.5498 28.01 29.5091 27.9976 29.4674C27.9867 29.4326 27.9754 29.4011 27.9593 29.3688C27.9496 29.3516 27.9485 29.3313 27.9379 29.314L22.5668 20.968C22.5657 20.9657 22.5632 20.965 22.5614 20.9626C22.5392 20.9286 22.5047 20.903 22.475 20.8743C22.4481 20.8474 22.4247 20.8159 22.3931 20.7949C22.3906 20.7931 22.3895 20.7908 22.3872 20.789C22.3609 20.7723 22.3304 20.7687 22.303 20.7562C22.2618 20.7377 22.2223 20.7162 22.1789 20.7078C22.1395 20.6994 22.1001 20.7048 22.0608 20.7048C22.0237 20.7048 21.9873 20.7001 21.9502 20.7071C21.9038 20.7168 21.862 20.7388 21.8183 20.7585C21.7927 20.7705 21.7653 20.7728 21.7407 20.789C21.7384 20.7901 21.7373 20.7931 21.7348 20.7944C21.7027 20.8159 21.6787 20.8487 21.65 20.8768C21.6215 20.9053 21.588 20.9297 21.5665 20.9632C21.5653 20.965 21.5624 20.9662 21.5611 20.9686L16.1901 29.3145C16.1788 29.3319 16.1776 29.3521 16.1686 29.3701C16.1525 29.4016 16.1405 29.4333 16.1305 29.4679C16.1179 29.5097 16.1084 29.5502 16.1054 29.5926C16.1043 29.6093 16.0952 29.6242 16.0952 29.6416C16.0952 29.6631 16.1054 29.681 16.1077 29.7025C16.112 29.74 16.1192 29.7765 16.1299 29.8135C16.1423 29.8552 16.1597 29.8941 16.1806 29.9316C16.1955 29.9572 16.2115 29.9805 16.2296 30.0038C16.2624 30.045 16.2982 30.0796 16.34 30.1113C16.3518 30.1196 16.3572 30.1321 16.3697 30.14C16.3823 30.1482 16.3966 30.1513 16.4097 30.1579C16.4402 30.1746 16.4701 30.1895 16.5029 30.2008C16.5428 30.214 16.5841 30.2205 16.6251 30.2253C16.6484 30.2276 16.6681 30.2384 16.692 30.2384H27.4341C27.458 30.2384 27.4777 30.2271 27.501 30.2253C27.5422 30.2205 27.5833 30.214 27.6234 30.2008C27.6567 30.1889 27.686 30.1746 27.7164 30.1579C27.7295 30.1506 27.7439 30.1477 27.7564 30.14C27.7689 30.1321 27.7743 30.1196 27.7863 30.1113C27.8274 30.0796 27.8638 30.0457 27.8966 30.0038C27.9163 29.98 27.9324 29.9567 27.9467 29.931Z" fill="#141414"/>
<path fill-rule="evenodd" clip-rule="evenodd" d="M14.3106 18.5898C15.1313 18.5898 15.8027 19.254 15.8027 20.0818C15.8027 20.9028 15.1313 21.5737 14.3106 21.5737C13.4824 21.5737 12.8186 20.903 12.8186 20.0818C12.8186 19.254 13.483 18.5898 14.3106 18.5898Z" fill="#D23D20"/>
</svg>
