<svg width="24" height="28" viewBox="0 0 24 28" fill="none" xmlns="http://www.w3.org/2000/svg">
<path d="M21.9103 1.50169C19.3654 -0.704816 15.4605 -0.45083 13.2054 2.07315L3.85955 12.6947C3.50755 13.0766 3.53955 13.6789 3.95555 14.029C4.14755 14.1878 4.37155 14.2512 4.59555 14.2512C4.86755 14.2512 5.15555 14.1551 5.34755 13.9338L14.6934 3.31222C16.2454 1.59693 18.9183 1.40732 20.6623 2.93124C22.4223 4.47103 22.5823 7.12289 21.0783 8.85317C21.0143 8.91666 20.9823 8.98016 20.9503 9.04366L6.75556 25.1259C6.27556 25.6665 5.60355 26.0307 4.83555 26.0625C4.08355 26.0951 3.34666 25.8561 2.77155 25.3481C1.66665 24.3957 1.63465 22.8242 2.70755 21.6168C2.73955 21.5851 2.77155 21.5533 2.77155 21.5216L13.5574 9.26501C13.9885 8.78879 14.6934 8.43956 15.3014 8.97928C15.9254 9.51988 15.6534 10.2501 15.2374 10.7422L9.38045 17.4578C9.01156 17.8388 9.04356 18.442 9.47645 18.7912C9.86045 19.1405 10.4676 19.1087 10.8205 18.696L16.7254 11.9804C17.9734 10.5517 17.9094 8.69354 16.5974 7.53561C15.2694 6.3918 13.3965 6.58229 12.1485 8.01184L1.09154 20.6177C1.02754 20.6812 0.994654 20.7446 0.930653 20.8399C-0.493351 22.7915 -0.26935 25.3164 1.50754 26.8571C2.37155 27.619 3.47555 28 4.62755 28C4.73955 28 4.83555 28 4.93155 28C6.17956 27.9365 7.34756 27.365 8.18045 26.4117L22.4863 10.1231C22.5503 10.0596 22.5823 9.9961 22.6143 9.93261C24.7103 7.40774 24.3912 3.67732 21.9103 1.50257V1.50169Z" fill="#D23D20"/>
</svg>
