<svg width="24" height="26" viewBox="0 0 24 26" fill="none" xmlns="http://www.w3.org/2000/svg">
<path fill-rule="evenodd" clip-rule="evenodd" d="M24 16.2026C24 17.5109 22.9721 18.5714 21.7041 18.5714H14.28V22.3167C14.28 24.3509 12.6816 26 10.71 26C10.0307 26 9.47999 25.4318 9.47999 24.7309V20.8945C9.47999 19.7878 9.02883 18.7392 8.24837 17.9982C8.13992 17.9176 8.03623 17.8292 7.93812 17.7334C7.13088 16.9452 6.12559 16.3708 5.00735 16.0975C5.0288 15.9877 5.04011 15.8742 5.04011 15.758V2.81345C5.04011 2.69722 5.0288 2.58371 5.00737 2.47398C6.12559 2.20074 7.13087 1.62631 7.93812 0.838077C8.48436 0.304611 9.20326 1.84572e-05 9.95539 1.84572e-05H21.7041C22.9721 1.84572e-05 24 1.06056 24 2.36883C24 2.92957 23.8111 3.44457 23.4954 3.85012C23.1179 4.3352 23.1179 5.01374 23.4954 5.49877C23.8111 5.90432 24 6.41938 24 6.98006C24 7.5408 23.8111 8.0558 23.4954 8.46135C23.1179 8.94643 23.1179 9.62498 23.4954 10.11C23.8111 10.5155 24 11.0305 24 11.5913C24 12.152 23.8111 12.667 23.4954 13.0726C23.1179 13.5577 23.1179 14.2361 23.4954 14.7212C23.8111 15.1269 24 15.6419 24 16.2026V16.2026ZM0 1.21054V17.3609C0 18.0295 0.525294 18.5714 1.17329 18.5714C2.18217 18.5714 3.00004 17.7276 3.00004 16.6867V1.88474C2.99999 0.843836 2.18213 0 1.17329 0C0.525294 0 0 0.541969 0 1.21054Z" fill="#525252"/>
</svg>
