<svg width="83" height="70" viewBox="0 0 83 70" fill="none" xmlns="http://www.w3.org/2000/svg">
<path fill-rule="evenodd" clip-rule="evenodd" d="M27.0621 18.5252C27.531 18.8315 28.1577 18.8315 28.6266 18.3699C32.229 14.9835 36.7692 12.9777 41.9361 12.6714C52.1121 12.2057 60.8813 19.2972 62.7613 28.852C62.7613 29.62 62.2882 30.2368 61.6616 30.2368L57.1213 30.392C56.1834 30.392 55.7144 31.6257 56.4947 32.3978L69.3351 43.9542C69.8041 44.2646 70.5885 44.2646 70.8997 43.7989L82.6445 31.1641C83.4289 30.392 82.8022 29.1584 81.8602 29.1584L75.7553 29.4688C74.1908 12.3609 59.0055 -0.73962 41.3094 0.0324419C32.8556 0.494045 25.0285 3.88458 19.0772 9.89767C18.766 10.3593 18.766 11.1273 19.2349 11.4377L27.0621 18.5252ZM1.06989 38.5579H6.7099C7.33241 38.5579 7.80138 39.0236 7.80138 39.4852C8.74345 47.1895 12.3416 54.281 17.8239 59.8284C24.5554 66.299 33.4823 70 42.874 70C51.8009 70 60.4124 66.7647 66.9862 60.7516C67.2974 60.29 67.2974 59.5179 66.9862 59.0563L58.0593 50.4248C53.9921 54.4321 48.6676 56.5931 42.874 56.5931C37.0804 56.5931 31.7558 54.281 27.531 50.2736C24.5554 47.3447 22.6754 43.7989 21.8952 39.9468C21.7375 39.1747 22.2064 38.5579 22.9908 38.5579H27.6846C28.7802 38.5579 29.2533 37.3283 28.6266 36.7115L15.3172 23.611C14.8483 23.1494 14.0639 23.1494 13.5949 23.611L0.285519 36.5563C-0.341148 37.3283 0.127815 38.5579 1.06989 38.5579Z" fill="#F0F0F0"/>
</svg>
