<svg width="27" height="24" viewBox="0 0 27 24" fill="none" xmlns="http://www.w3.org/2000/svg">
<path fill-rule="evenodd" clip-rule="evenodd" d="M11.2561 0.147539C4.86178 0.987461 0 5.37517 0 10.6649C0 13.1763 1.099 15.4849 2.93757 17.307C3.15371 17.5213 3.23671 17.8398 3.15724 18.1358C2.58602 20.2651 1.34962 22.1895 0.604842 23.2173L0.60471 23.2173C0.506757 23.3524 0.416987 23.4728 0.33877 23.5752C0.204715 23.7508 0.331372 24.0055 0.549943 23.9999C2.04386 23.962 6.23488 23.6222 8.77248 21.0869C8.90285 20.9566 9.06903 20.8761 9.24476 20.8515L9.276 20.8485C9.36875 20.8387 9.46377 20.8446 9.55736 20.8671C10.122 21.0032 10.6675 21.1046 11.2609 21.1816L11.2614 21.1815C11.9897 21.2777 12.7371 21.3296 13.5 21.3296C20.9559 21.3296 27 16.5549 27 10.6649C27 4.77484 20.9559 0 13.5 0H13.5C12.7354 0 11.9859 0.0510302 11.2561 0.14746L11.2567 0.147539H11.2561ZM22.1333 10.6649C22.1333 9.58235 21.2697 8.70478 20.2045 8.70478C19.1392 8.70478 18.2756 9.58235 18.2756 10.6649C18.2756 11.7474 19.1392 12.6249 20.2045 12.6249C21.2697 12.6249 22.1333 11.7474 22.1333 10.6649ZM15.4315 10.6649C15.4315 9.58235 14.5679 8.70478 13.5026 8.70478C12.4373 8.70478 11.5737 9.58235 11.5737 10.6649C11.5737 11.7474 12.4373 12.6249 13.5026 12.6249C14.5679 12.6249 15.4315 11.7474 15.4315 10.6649ZM8.72971 10.6649C8.72971 9.58235 7.86615 8.70478 6.80087 8.70478C5.73562 8.70478 4.872 9.58235 4.872 10.6649C4.872 11.7474 5.73562 12.6249 6.80087 12.6249C7.86615 12.6249 8.72971 11.7474 8.72971 10.6649Z" fill="#525252"/>
</svg>
