<svg width="66" height="66" viewBox="0 0 66 66" fill="none" xmlns="http://www.w3.org/2000/svg">
<path fill-rule="evenodd" clip-rule="evenodd" d="M53.0521 32.2664C53.6965 30.2172 54.0438 28.0363 54.0438 25.7744C54.0438 19.8044 51.624 14.3988 47.712 10.4868C43.7997 6.57457 38.3944 4.15474 32.4241 4.15474C26.4538 4.15474 21.0485 6.57457 17.1362 10.4868C14.1017 13.5213 11.9657 17.454 11.1597 21.8522H7.10254C8.9902 9.56455 19.6082 0.154297 32.4241 0.154297C46.5736 0.154297 58.0445 11.6249 58.0445 25.7744C58.0445 28.0173 57.7553 30.1931 57.2138 32.2664H53.0521ZM50.6243 32.2664C50.6549 32.1805 50.6849 32.0949 50.7141 32.0087L49.2021 31.4862C49.112 31.7499 49.0164 32.0093 48.9149 32.2664H50.6243ZM51.1655 30.474C51.2939 29.9594 51.4022 29.4372 51.4884 28.9073L49.9109 28.6467C49.8338 29.1293 49.7326 29.6101 49.6149 30.0845L51.1655 30.474ZM51.6812 27.3193C51.7217 26.8095 51.7425 26.2947 51.7425 25.7744L51.7419 25.7208H50.1423C50.1423 26.211 50.1258 26.6993 50.0867 27.188L51.6812 27.3193ZM51.6716 24.1226C51.6259 23.5871 51.559 23.058 51.4708 22.5358L49.8934 22.7964C49.9753 23.2797 50.0362 23.7654 50.0782 24.2539L51.6716 24.1226ZM51.1403 20.9705C51.0073 20.4514 50.8522 19.9407 50.6784 19.4392L49.167 19.9612C49.3278 20.4205 49.4675 20.8894 49.5886 21.3603L51.1403 20.9705ZM50.0912 17.951C49.8746 17.4617 49.6388 16.9834 49.3833 16.5167L47.9773 17.2794C48.211 17.7075 48.4293 18.1455 48.6263 18.5918L50.0912 17.951ZM48.5574 15.1467C48.2631 14.7008 47.9521 14.2673 47.6229 13.8482L46.3587 14.8292C46.6635 15.2216 46.9462 15.6126 47.222 16.0256L48.5574 15.1467ZM46.5825 12.6333C46.2196 12.2427 45.8413 11.8659 45.4472 11.5064L44.3642 12.6835C44.7302 13.0169 45.0645 13.3583 45.4061 13.7158L46.5825 12.6333ZM44.2224 10.4778C43.8005 10.1523 43.3654 9.84325 42.9171 9.55264L42.0456 10.8937C42.4556 11.1576 42.8559 11.4431 43.242 11.7411L44.2224 10.4778ZM41.5401 8.73895C41.0711 8.48774 40.5909 8.25554 40.1001 8.04263L39.4593 9.50757C39.9059 9.70093 40.3493 9.91413 40.7774 10.1446L41.5401 8.73895ZM38.6074 7.4668C38.1044 7.29726 37.5918 7.14869 37.0715 7.01998L36.682 8.57082C37.1583 8.68819 37.6289 8.82541 38.0939 8.98249L38.6074 7.4668ZM35.5037 6.7013C34.9809 6.61737 34.4513 6.55387 33.9154 6.51276L33.7841 8.10755C34.2616 8.14526 34.7722 8.19459 35.2431 8.27908L35.5037 6.7013ZM32.3167 6.45748C31.7783 6.4606 31.2458 6.48583 30.7187 6.53176L30.8497 8.12484C31.3484 8.08288 31.8185 8.07211 32.3167 8.05652V6.45748ZM29.1325 6.73645C28.6031 6.82718 28.0815 6.93889 27.568 7.07186L27.9661 8.62128C28.4392 8.49937 28.9136 8.39759 29.395 8.31395L29.1325 6.73645ZM26.0378 7.53796C25.5326 7.71516 25.0368 7.91193 24.5517 8.12853L25.2017 9.58978C25.6446 9.39189 26.1016 9.20788 26.5601 9.04911L26.0378 7.53796ZM23.1193 8.84158C22.6512 9.09958 22.195 9.37629 21.7516 9.67059L22.6305 11.0062C23.0402 10.7349 23.4558 10.4837 23.8856 10.2453L23.8817 10.2473L23.1193 8.84158ZM20.4562 10.6093C20.0374 10.9405 19.6335 11.2889 19.2436 11.6527L20.3337 12.8225C20.6904 12.4885 21.0613 12.1715 21.444 11.8676L20.4562 10.6093ZM18.1195 12.7907C17.7611 13.1851 17.4198 13.5959 17.0946 14.0192L18.3576 14.9993C18.6604 14.6078 18.9715 14.2338 19.3034 13.8669L18.1195 12.7907ZM16.1725 15.3262C15.8842 15.7739 15.6146 16.2343 15.3634 16.7061L16.7733 17.4608C17.001 17.0319 17.2499 16.6057 17.5139 16.198L16.1725 15.3262ZM14.6705 18.1478C14.4604 18.6363 14.2696 19.1347 14.0997 19.6425L15.6149 20.1557C15.7708 19.6896 15.9454 19.2322 16.1394 18.7806L14.6705 18.1478ZM13.6569 21.1794C13.6025 21.4023 13.552 21.6266 13.5052 21.8522H15.1414C15.1638 21.7541 15.1867 21.6563 15.2103 21.5585L13.6569 21.1794Z" fill="#E6E6E6"/>
<path fill-rule="evenodd" clip-rule="evenodd" d="M55.418 30.4629H41.9932V54.7953H63.9888V43.8432L61.4235 34.9774C60.6504 32.3035 58.2013 30.4629 55.418 30.4629ZM60.7776 43.731L58.4914 35.8279C58.097 34.4693 56.8336 33.5187 55.418 33.5187H45.0487V43.731H60.7776Z" fill="#141414"/>
<path fill-rule="evenodd" clip-rule="evenodd" d="M4.0634 18.248H37.9293C40.1723 18.248 41.9927 20.0668 41.9927 22.3111V54.7944H0V22.3111C0 20.0671 1.81908 18.248 4.0634 18.248Z" fill="#D23D20"/>
<path fill-rule="evenodd" clip-rule="evenodd" d="M27.522 18.2559V28.9921L25.9508 27.4212L24.3041 29.0681L22.6583 27.4212L21.0127 29.0681L19.3644 27.4212L17.6973 29.0681L16.0529 27.4212L14.4629 29.0111V18.2559H27.522Z" fill="#E6E6E6"/>
<path fill-rule="evenodd" clip-rule="evenodd" d="M65.018 54.793V59.3843H0.00585938V54.793H6.79156C8.37614 51.9488 11.4237 50.0254 14.918 50.0254C18.3988 50.0254 21.4463 51.9488 23.0445 54.793H44.8777C46.4626 51.9488 49.4951 50.0254 52.9895 50.0254C56.4838 50.0254 59.5178 51.9488 61.116 54.793H65.018Z" fill="#E6E6E6"/>
<path fill-rule="evenodd" clip-rule="evenodd" d="M59.4782 59.3561C59.4782 62.94 56.573 65.8452 52.9893 65.8452C49.4053 65.8452 46.5029 62.94 46.5029 59.3561C46.5029 55.7724 49.4068 52.8672 52.9893 52.8672C56.5744 52.8672 59.4782 55.7724 59.4782 59.3561Z" fill="#141414"/>
<path fill-rule="evenodd" clip-rule="evenodd" d="M55.5976 59.3558C55.5976 60.7955 54.43 61.9619 52.9915 61.9619C51.5518 61.9619 50.3828 60.7955 50.3828 59.3558C50.3828 57.9161 51.5504 56.75 52.9915 56.75C54.43 56.7486 55.5976 57.9161 55.5976 59.3558Z" fill="#DAD8D9"/>
<path fill-rule="evenodd" clip-rule="evenodd" d="M21.4019 59.3561C21.4019 62.94 18.4953 65.8452 14.9127 65.8452C11.3291 65.8452 8.42383 62.94 8.42383 59.3561C8.42383 55.7724 11.3291 52.8672 14.9127 52.8672C18.4953 52.8672 21.4019 55.7724 21.4019 59.3561Z" fill="#141414"/>
<path fill-rule="evenodd" clip-rule="evenodd" d="M17.518 59.3558C17.518 60.7955 16.3519 61.9619 14.9119 61.9619C13.4722 61.9619 12.3047 60.7955 12.3047 59.3558C12.3047 57.9161 13.4725 56.75 14.9119 56.75C16.3516 56.75 17.518 57.9161 17.518 59.3558Z" fill="#DAD8D9"/>
</svg>
