<svg width="66" height="66" viewBox="0 0 66 66" fill="none" xmlns="http://www.w3.org/2000/svg">
<path fill-rule="evenodd" clip-rule="evenodd" d="M65.6906 32.9996C65.6906 41.9953 62.0752 50.1476 56.2152 56.0786C52.9026 59.4343 48.8726 62.0792 44.3734 63.7645C43.0179 64.2739 41.6185 64.695 40.1839 65.0219C37.8245 65.5608 35.3684 65.8449 32.8454 65.8449C29.9484 65.8449 27.1396 65.4695 24.4651 64.7658C19.2994 63.4078 14.6316 60.8218 10.7905 57.3388C4.16265 51.3302 0 42.6508 0 32.9996C0 14.8595 14.7053 0.154297 32.8454 0.154297C50.9854 0.154297 65.6906 14.8595 65.6906 32.9996Z" fill="#E6E6E6"/>
<path fill-rule="evenodd" clip-rule="evenodd" d="M26.557 65.2431C25.8513 65.1061 25.1536 64.9465 24.4652 64.7653C21.8716 64.0835 19.4038 63.0923 17.1028 61.8335V32.9778C13.2458 31.1908 10.5693 27.2859 10.5693 22.7553C10.5693 18.0628 13.4397 14.0414 17.5204 12.3496V19.141C17.5204 21.5211 19.45 23.4505 21.8302 23.4505C24.21 23.4505 26.1396 21.5211 26.1396 19.141V12.3496C30.2206 14.0414 33.0909 18.0628 33.0909 22.7553C33.0909 27.2862 30.4145 31.1911 26.557 32.9781V65.2431Z" fill="#D23D20"/>
<path fill-rule="evenodd" clip-rule="evenodd" d="M51.7161 24.5315L48.0859 12.3496H44.4561L40.8262 24.5315L43.7787 30.7446V57.1404H48.7622V30.7454H48.763L51.7161 24.5315Z" fill="#141414"/>
<path fill-rule="evenodd" clip-rule="evenodd" d="M54.5493 57.6528C53.6755 58.4231 52.76 59.1475 51.8073 59.8226H51.2763C51.3787 59.8733 51.4794 59.9269 51.5783 59.9833C49.3606 61.5259 46.9436 62.802 44.3738 63.7643C43.0183 64.2738 41.6183 64.6951 40.184 65.022C39.453 65.189 38.7131 65.3313 37.9648 65.4487V65.1422C37.9648 62.8103 39.3104 60.7928 41.2667 59.8226H39.8111C38.7919 59.8226 37.9654 58.9961 37.9654 57.9763C37.9654 56.9576 38.7919 56.1309 39.8111 56.1309H52.7319C53.6411 56.1309 54.3965 56.7883 54.5493 57.6528Z" fill="#D23D20"/>
</svg>
