<svg width="16" height="25" viewBox="0 0 16 25" fill="none" xmlns="http://www.w3.org/2000/svg">
<path d="M7.12982 25C6.94269 25 6.78363 24.9352 6.65263 24.8056C6.52164 24.6944 6.45614 24.537 6.45614 24.3333V22.3889C5.10877 22.2593 3.94854 21.9444 2.97544 21.4444C2.02105 20.9259 1.29123 20.2963 0.785965 19.5556C0.299415 18.7963 0.0374269 17.9907 0 17.1389C0 16.9722 0.0561404 16.8333 0.168421 16.7222C0.299415 16.6111 0.449123 16.5556 0.617544 16.5556H3.11579C3.32164 16.5556 3.4807 16.6019 3.59298 16.6944C3.72398 16.7685 3.84561 16.8981 3.95789 17.0833C4.16374 17.713 4.59415 18.2407 5.24912 18.6667C5.92281 19.0926 6.84912 19.3056 8.02807 19.3056C9.33801 19.3056 10.3298 19.0926 11.0035 18.6667C11.6772 18.2222 12.014 17.6111 12.014 16.8333C12.014 16.3148 11.8456 15.8889 11.5088 15.5556C11.1719 15.2222 10.6573 14.9352 9.96491 14.6944C9.27251 14.4352 8.25263 14.1389 6.90526 13.8056C4.69708 13.287 3.07836 12.6019 2.04912 11.75C1.0386 10.8796 0.533333 9.64815 0.533333 8.05555C0.533333 6.61111 1.05731 5.39815 2.10526 4.41667C3.17193 3.41667 4.62222 2.80555 6.45614 2.58333V0.666666C6.45614 0.462962 6.52164 0.305554 6.65263 0.194444C6.78363 0.0648145 6.94269 0 7.12982 0H8.8421C9.02924 0 9.1883 0.0648145 9.3193 0.194444C9.45029 0.324074 9.51579 0.481481 9.51579 0.666666V2.63889C10.7322 2.80555 11.7708 3.16667 12.6316 3.72222C13.5111 4.25926 14.1754 4.88889 14.6246 5.61111C15.0924 6.33333 15.345 7.03704 15.3825 7.72222C15.3825 7.88889 15.3263 8.02778 15.214 8.13889C15.1018 8.25 14.9614 8.30555 14.793 8.30555H12.1825C11.7708 8.30555 11.4901 8.12963 11.3404 7.77778C11.2468 7.18518 10.8819 6.69444 10.2456 6.30556C9.60936 5.89815 8.81404 5.69444 7.85965 5.69444C6.83041 5.69444 6.01637 5.88889 5.41754 6.27778C4.81871 6.66667 4.5193 7.23148 4.5193 7.97222C4.5193 8.49074 4.66901 8.91667 4.96842 9.25C5.26784 9.58333 5.73567 9.87963 6.37193 10.1389C7.0269 10.3981 7.96257 10.6852 9.17895 11C10.8257 11.3704 12.1357 11.787 13.1088 12.25C14.1006 12.713 14.8304 13.2963 15.2982 14C15.7661 14.7037 16 15.6019 16 16.6944C16 18.287 15.4199 19.5926 14.2596 20.6111C13.0994 21.6111 11.5181 22.213 9.51579 22.4167V24.3333C9.51579 24.5185 9.45029 24.6759 9.3193 24.8056C9.1883 24.9352 9.02924 25 8.8421 25H7.12982Z" fill="white"/>
</svg>
