<svg width="14" height="14" viewBox="0 0 14 14" fill="none" xmlns="http://www.w3.org/2000/svg">
<path d="M0.410157 14H7.84768C8.07422 14 8.25783 13.8164 8.25783 13.5898V13.1523C8.25783 12.6993 7.89062 12.332 7.43752 12.332V11.8417C7.43752 11.1924 6.90923 10.6641 6.25992 10.6641H1.99791C1.34861 10.6641 0.820315 11.1924 0.820315 11.8417V12.332C0.367219 12.332 0 12.6993 0 13.1523V13.5898C0 13.8163 0.183716 14 0.410157 14Z" fill="#A4A4A4"/>
<path d="M5.13338 9.03284C5.40596 9.39461 5.92036 9.46692 6.28214 9.19423C6.64401 8.92165 6.71622 8.40725 6.44364 8.04537L3.97521 4.76978C3.70252 4.4079 3.18823 4.3357 2.82645 4.60828C2.46458 4.88097 2.39226 5.39527 2.66495 5.75715L5.13338 9.03284Z" fill="#A4A4A4"/>
<path d="M11.0295 4.5897C11.3022 4.95147 11.8165 5.02378 12.1784 4.75109C12.5401 4.47851 12.6124 3.96421 12.3398 3.60233L9.87133 0.326746C9.59875 -0.0351315 9.08434 -0.107443 8.72257 0.165247C8.3608 0.437936 8.28849 0.952234 8.56118 1.31411L11.0295 4.5897Z" fill="#A4A4A4"/>
<path d="M9.23025 6.97266C9.83651 6.51583 10.2916 5.94855 10.5763 5.35126L7.70412 1.5398C7.0515 1.64886 6.38083 1.92988 5.77446 2.38682C5.1682 2.84365 4.71307 3.41093 4.42842 4.00811L7.30059 7.81978C7.95321 7.71073 8.62388 7.4296 9.23025 6.97266Z" fill="#A4A4A4"/>
<path d="M10.3378 7.07947C10.1468 7.27408 9.94567 7.46068 9.72393 7.62784C9.50208 7.7949 9.26721 7.93685 9.02763 8.06684L9.56243 8.7766L10.8727 7.78934L10.3378 7.07947Z" fill="#A4A4A4"/>
<path d="M11.3664 8.44442L10.0561 9.43167L12.5245 12.7074C12.7972 13.0692 13.3115 13.1414 13.6733 12.8689C14.0352 12.5962 14.1074 12.0819 13.8348 11.72L11.3664 8.44442Z" fill="#A4A4A4"/>
</svg>
