<svg width="44" height="49" viewBox="0 0 44 49" fill="none" xmlns="http://www.w3.org/2000/svg">
<g opacity="0.5">
<path d="M19.8415 0C22.517 0 25.0814 0.537085 27.4295 1.50961L27.5791 1.57749C29.9605 2.58592 32.0933 4.03482 33.8694 5.81034L34.0343 5.98861C35.7806 7.77913 37.1935 9.90134 38.1683 12.2511C39.145 14.5968 39.6824 17.1601 39.6824 19.8352C39.6824 22.5091 39.145 25.0737 38.1724 27.4211L38.104 27.5728C37.328 29.3992 36.2859 31.0872 35.0274 32.5849L43.2948 42.0945C44.3399 43.3021 44.2083 45.1302 43.0001 46.1751L40.5509 48.2951C39.3427 49.34 37.514 49.208 36.4689 48.0004L27.7815 38.008C26.9177 38.3837 26.0171 38.7015 25.0849 38.9574C23.3861 39.4211 21.6264 39.6707 19.8415 39.6707C17.1666 39.6707 14.601 39.1334 12.253 38.1609L12.1033 38.0931C9.72131 37.0847 7.58794 35.6357 5.81184 33.8602C3.99835 32.0465 2.5258 29.8606 1.51409 27.4194C0.537423 25.0737 0 22.5091 0 19.8352C0 17.1601 0.537423 14.5969 1.50999 12.2494L1.57781 12.0994C2.58659 9.71843 4.03579 7.58579 5.81184 5.81034C7.62597 3.99718 9.81258 2.5251 12.2547 1.51378C14.601 0.5372 17.1666 0 19.8415 0ZM27.3347 12.0699C26.371 11.1379 25.2317 10.3842 23.9762 9.86433C22.7171 9.34277 21.3205 9.05439 19.8415 9.05439C18.3625 9.05439 16.9648 9.34335 15.7063 9.86433C14.4063 10.4021 13.2203 11.2067 12.215 12.2117C11.2102 13.2161 10.4044 14.4024 9.86635 15.7026C9.34531 16.9605 9.05697 18.3562 9.05697 19.8352C9.05697 21.3143 9.34531 22.7101 9.86635 23.968C10.4044 25.2682 11.2102 26.4544 12.215 27.4588C13.2203 28.4637 14.4063 29.2684 15.7063 29.8061C16.9648 30.3272 18.3625 30.6161 19.8415 30.6161C21.3129 30.6161 22.7059 30.3278 23.9645 29.8061L24.0978 29.7553C25.3505 29.218 26.4938 28.4325 27.4674 27.4588C28.4722 26.4544 29.2781 25.2682 29.8161 23.968C30.3371 22.7101 30.6255 21.3143 30.6255 19.8352C30.6255 18.3562 30.3371 16.9605 29.8161 15.7026C29.2781 14.4024 28.4722 13.2161 27.4674 12.2117L27.3347 12.0699Z" fill="white"/>
<path d="M14.3014 19.963C14.3014 18.9607 15.1222 18.1481 16.1348 18.1481H23.4681C24.4806 18.1481 25.3014 18.9607 25.3014 19.963C25.3014 20.9653 24.4806 21.7778 23.4681 21.7778H16.1348C15.1222 21.7778 14.3014 20.9653 14.3014 19.963Z" fill="white"/>
<path d="M19.8014 25.4074C18.7889 25.4074 17.9681 24.5949 17.9681 23.5926V16.3333C17.9681 15.331 18.7889 14.5185 19.8014 14.5185C20.814 14.5185 21.6348 15.331 21.6348 16.3333V23.5926C21.6348 24.5949 20.814 25.4074 19.8014 25.4074Z" fill="white"/>
</g>
</svg>
