<svg width="26" height="28" viewBox="0 0 26 28" fill="none" xmlns="http://www.w3.org/2000/svg">
<path fill-rule="evenodd" clip-rule="evenodd" d="M25.5 22.2591C22.4439 25.7795 17.9769 28 13 28C8.0229 28 3.55586 25.7793 0.5 22.2591C0.694964 21.7627 0.916299 21.3303 1.16851 20.9856C2.15032 19.6432 8.33417 17.6506 8.60554 17.426C8.87713 17.2015 9.74241 16.0092 9.74241 16.0092H9.80169V14.6728C9.44197 14.2078 9.16338 13.7364 8.98374 13.3573C8.86023 13.0977 8.7543 12.5432 8.66391 11.8368C7.64402 11.3617 7.52073 9.70215 7.4779 8.77219C7.45041 8.17961 7.82163 8.29 8.12793 8.4775C8.07902 8.29941 8.03552 8.13347 8.00059 7.98636C7.89646 7.69558 7.82501 7.3924 7.79007 7.0844C7.61922 5.577 8.27985 4.05492 8.04251 2.55693C8.14326 2.63519 8.24446 2.71345 8.34521 2.79194C8.33394 2.29644 8.32267 1.80117 8.31095 1.30566C8.45047 1.35914 8.58976 1.41261 8.72905 1.46609C8.68127 1.20353 8.63349 0.940746 8.5857 0.678191C8.81673 0.715142 9.04776 0.751633 9.27878 0.788354C9.21725 0.525569 9.15572 0.262785 9.09441 0C9.66262 0.110622 10.2076 0.343571 10.683 0.679339C10.6386 0.471635 10.5944 0.263932 10.55 0.0559995C11.676 0.0706879 12.815 0.0869829 13.9061 0.370882C14.6158 0.555635 15.3082 0.868911 15.8843 1.32242C16.5578 1.38966 17.2153 1.62766 17.7733 2.01828C17.6559 2.09264 17.5385 2.16723 17.4211 2.24159C17.9503 2.82752 18.3623 3.52315 18.624 4.27341C18.5009 4.22269 18.3781 4.1722 18.255 4.12147C18.2917 4.9376 18.2487 5.75671 18.1376 6.56572C18.1281 6.70388 18.1146 6.84411 18.095 6.98663C18.0199 7.53768 17.9237 8.05475 17.8205 8.52524C18.1371 8.31295 18.5742 8.13072 18.5449 8.77219C18.502 9.70169 18.3785 11.3601 17.3598 11.8361C17.2694 12.543 17.1637 13.0977 17.0406 13.3573C16.8567 13.7449 16.5698 14.2285 16.1983 14.7033V16.0092H16.2576C16.2576 16.0092 17.1229 17.2015 17.3945 17.426C17.6658 17.6506 23.8495 19.6432 24.8313 20.9856C25.0837 21.3305 25.305 21.7627 25.5 22.2591Z" fill="#E3E3E3"/>
</svg>
