<svg width="24" height="18" viewBox="0 0 24 18" fill="none" xmlns="http://www.w3.org/2000/svg">
<path d="M18.1457 0H1.46087C0.645652 0 0 0.684782 0 1.49348V12.9652C0 12.9717 0 12.9783 0 12.9848C0.00652174 13.7804 0.665217 14.4196 1.46087 14.413H2.21739V5.0413C2.21739 3.5087 3.46957 2.28261 5.00217 2.28261H19.5935V1.49348C19.5935 0.684782 18.9609 0 18.1457 0Z" fill="#A4A4A4"/>
<path d="M20.1801 13.5C19.7367 13.1283 19.078 13.187 18.7062 13.6304C18.6736 13.6696 18.641 13.7022 18.6084 13.7283C18.328 13.9565 17.9171 13.9109 17.6888 13.6304C17.4932 13.3891 17.1932 13.2457 16.8801 13.2457C16.2932 13.2457 15.8236 13.7152 15.8301 14.3022C15.8301 14.8826 16.3062 15.3522 16.8867 15.3522C17.1997 15.3587 17.4997 15.2152 17.6954 14.9739C17.8193 14.8239 18.0019 14.7391 18.1975 14.7391C18.3867 14.7326 18.5758 14.8174 18.6997 14.9674C18.7454 15.0196 18.7845 15.0652 18.8367 15.1044C19.2801 15.4761 19.9388 15.4174 20.3106 14.9739C20.6823 14.5304 20.6236 13.8718 20.1801 13.5Z" fill="#A4A4A4"/>
<path d="M21.6932 3.58696H5.00192C4.1867 3.58044 3.52801 4.23261 3.52148 5.04131V6.00001H23.1802V5.04131C23.1802 4.22609 22.5084 3.58696 21.6932 3.58696Z" fill="#A4A4A4"/>
<path d="M23.1737 7.30435H3.52148V9H23.1737V7.30435Z" fill="#A4A4A4"/>
<path d="M3.52148 10.3044V16.5065C3.52148 17.3283 4.18018 17.9935 5.00192 18H21.6867C22.5084 17.9935 23.1671 17.3283 23.1737 16.5065V10.3044H3.52148ZM21.4715 15.613C20.741 16.6891 19.2737 16.9761 18.1976 16.2457C17.8063 16.513 17.3497 16.65 16.8802 16.65C15.5758 16.65 14.5258 15.587 14.5258 14.2891C14.5258 12.9913 15.5758 11.9348 16.8802 11.9348C17.3497 11.9348 17.8063 12.0717 18.1976 12.3391C18.9997 11.7978 20.0432 11.7978 20.8389 12.3391C21.915 13.0696 22.2019 14.537 21.4715 15.613Z" fill="#A4A4A4"/>
</svg>
