<svg width="24" height="24" viewBox="0 0 24 24" fill="none" xmlns="http://www.w3.org/2000/svg">
<path d="M13.548 8.328C13.548 7.86 13.368 7.428 13.056 7.128C12.756 6.816 12.336 6.624 11.868 6.624C11.4 6.624 10.98 6.816 10.68 7.128H10.668C10.368 7.428 10.188 7.86 10.188 8.328C10.188 8.796 10.368 9.228 10.68 9.54C10.98 9.84 11.4 10.032 11.868 10.032C12.336 10.032 12.756 9.84 13.056 9.54C13.368 9.228 13.548 8.808 13.548 8.328ZM3.516 3.516C5.688 1.344 8.688 0 12 0C15.312 0 18.312 1.344 20.484 3.516C22.656 5.688 24 8.688 24 12C24 15.312 22.656 18.312 20.484 20.484C18.312 22.656 15.312 24 12 24C8.688 24 5.688 22.656 3.516 20.484C1.344 18.312 0 15.312 0 12C0 8.688 1.344 5.688 3.516 3.516ZM8.148 2.676C6.924 3.192 5.808 3.936 4.872 4.872C3.936 5.808 3.192 6.924 2.676 8.148C2.196 9.336 1.92 10.632 1.92 12C1.92 13.368 2.196 14.664 2.676 15.852C3.192 17.076 3.936 18.192 4.872 19.128C5.808 20.064 6.924 20.808 8.148 21.324C9.336 21.804 10.632 22.08 12 22.08C13.368 22.08 14.664 21.804 15.852 21.324C17.076 20.808 18.192 20.064 19.128 19.128C20.064 18.192 20.808 17.076 21.324 15.852C21.804 14.664 22.08 13.368 22.08 12C22.08 10.632 21.804 9.336 21.324 8.148C20.808 6.924 20.064 5.808 19.128 4.872C18.192 3.936 17.076 3.192 15.852 2.676C14.664 2.196 13.368 1.92 12 1.92C10.632 1.92 9.336 2.196 8.148 2.676ZM14.328 5.832C14.964 6.48 15.36 7.356 15.36 8.328C15.36 9.3 14.964 10.176 14.328 10.824L14.22 10.932C14.868 11.22 15.444 11.628 15.936 12.132C16.98 13.188 17.628 14.64 17.628 16.248C17.628 17.772 16.032 18.684 14.004 19.02C13.32 19.14 12.588 19.2 11.868 19.2C11.148 19.2 10.416 19.14 9.732 19.02C7.692 18.684 6.108 17.772 6.108 16.248C6.108 14.64 6.756 13.188 7.8 12.132C8.292 11.628 8.868 11.22 9.516 10.932L9.408 10.824C8.772 10.188 8.376 9.3 8.376 8.328C8.376 7.356 8.772 6.48 9.408 5.832C10.032 5.196 10.908 4.8 11.868 4.8C12.828 4.8 13.704 5.196 14.328 5.832ZM11.868 12.252C10.776 12.252 9.78 12.696 9.072 13.416C8.352 14.148 7.908 15.144 7.908 16.248C7.908 16.68 8.844 17.028 10.032 17.232C10.596 17.328 11.232 17.376 11.868 17.376C12.504 17.376 13.14 17.328 13.704 17.232C14.892 17.028 15.828 16.68 15.828 16.248C15.828 15.144 15.384 14.148 14.664 13.416C13.944 12.696 12.96 12.252 11.868 12.252Z" fill="#A4A4A4"/>
</svg>
